# Blender 3.6.1
# www.blender.org
mtllib pq0000.mtl
o pq0000
v -0.214849 0.781276 0.145049
v -0.214849 0.781276 -0.145049
v -0.152671 0.781276 -0.214849
v -0.152671 0.781276 0.214849
v 0.152408 0.781276 0.214849
v 0.152408 0.781276 -0.214849
v 0.214849 0.781276 0.145049
v 0.214849 0.781276 -0.145049
v -0.214849 0.781276 -0.145049
v -0.214849 0.781276 0.145049
v -0.250000 0.729635 0.168780
v -0.250000 0.729635 -0.168780
v -0.250000 0.328046 -0.168780
v -0.250000 0.328046 0.168780
v -0.214849 0.281276 -0.145049
v -0.214849 0.281276 0.145049
v -0.152671 0.281276 0.214849
v -0.152671 0.281276 -0.214849
v 0.152408 0.281276 -0.214849
v -0.177648 0.328046 0.250000
v -0.250000 0.328046 0.168780
v 0.152408 0.281276 0.214849
v 0.214849 0.281276 -0.145049
v -0.177648 0.729635 0.250000
v -0.250000 0.729635 0.168780
v 0.177345 0.328046 0.250000
v -0.152671 0.781276 0.214849
v -0.214849 0.781276 0.145049
v 0.177345 0.729635 0.250000
v 0.152408 0.781276 0.214849
v 0.250000 0.729635 0.168780
v 0.214849 0.781276 0.145049
v 0.250000 0.328046 0.168780
v 0.214849 0.281276 0.145049
v 0.250000 0.328046 0.168780
v 0.250000 0.328046 -0.168780
v 0.250000 0.729635 -0.168780
v 0.250000 0.729635 0.168780
v 0.214849 0.781276 -0.145049
v 0.214849 0.781276 0.145049
v 0.152408 0.281276 -0.214849
v 0.214849 0.281276 -0.145049
v 0.250000 0.328046 -0.168780
v 0.177345 0.328046 -0.250000
v -0.152671 0.281276 -0.214849
v 0.177345 0.729635 -0.250000
v 0.250000 0.729635 -0.168780
v 0.152408 0.781276 -0.214849
v 0.214849 0.781276 -0.145049
v -0.152671 0.781276 -0.214849
v -0.177648 0.729635 -0.250000
v -0.214849 0.781276 -0.145049
v -0.250000 0.729635 -0.168780
v -0.177648 0.328046 -0.250000
v -0.250000 0.328046 -0.168780
v -0.214849 0.281276 -0.145049
v 1.000000 3.128370 0.181876
v 1.125000 3.064541 0.181876
v 1.043961 3.064541 0.250000
v 1.059842 3.128371 0.136573
v 1.059842 3.128371 -0.136574
v 1.125000 3.064541 -0.181877
v 1.000000 3.128371 -0.181877
v 1.043961 3.064541 -0.250000
v 0.689966 2.623577 -0.250000
v 1.043961 1.561749 -0.250000
v 0.689966 2.004116 -0.250000
v 0.622011 1.940613 -0.250000
v 0.222981 1.561749 -0.250000
v 1.002770 1.503371 -0.181877
v 0.308773 1.503371 -0.181877
v 1.125000 1.561749 -0.181877
v 1.002770 1.503371 0.181877
v 0.308773 1.503371 0.181877
v 1.059658 1.503371 -0.128293
v 1.125000 1.561749 0.181877
v 1.059658 1.503371 0.128293
v 1.043961 1.561749 0.250000
v 0.222981 1.561749 0.250000
v 0.622011 1.940613 0.250000
v -0.117149 2.003371 0.181876
v 0.562830 2.003370 0.181876
v -0.161495 1.940613 0.250000
v 0.222981 1.561749 0.250000
v 0.250000 1.439908 0.181877
v 0.308773 1.503371 0.181877
v 0.160137 1.498286 0.250000
v 0.160137 1.058859 0.250000
v -0.161495 1.940613 0.250000
v 0.250000 1.439908 -0.181877
v 0.308773 1.503371 -0.181877
v 0.222981 1.561749 -0.250000
v 0.250000 1.058859 0.181877
v 0.160137 1.498286 -0.250000
v 0.250000 1.058859 -0.181877
v -0.161495 1.940613 -0.250000
v 0.622011 1.940613 -0.250000
v 0.160137 1.058859 -0.250000
v 0.205114 1.003371 -0.149222
v 0.205114 1.003371 0.149222
v 0.131385 1.003371 -0.205114
v -0.161495 1.058859 -0.250000
v -0.205114 1.003371 -0.149222
v -0.132500 1.003371 -0.205114
v -0.250000 1.940613 -0.181877
v -0.250000 1.058859 -0.181877
v -0.205114 1.003371 0.149222
v 0.131385 1.003371 0.205114
v -0.132500 1.003371 0.205114
v -0.161495 1.058859 0.250000
v -0.250000 1.058859 0.181877
v -0.250000 1.940613 0.181876
v -0.117149 2.003371 0.181876
v -0.183534 2.003371 0.125681
v -0.183534 2.003371 -0.125682
v -0.117149 2.003371 -0.181877
v 0.562830 2.003371 -0.181877
v 0.625000 2.068255 -0.181877
v 0.689966 2.004116 -0.250000
v 0.625000 2.562896 -0.181877
v 0.689966 2.623577 -0.250000
v 0.625000 2.068255 0.181876
v 0.625000 2.562896 0.181876
v 0.689966 2.004116 0.250000
v 0.562830 2.003370 0.181876
v 0.689966 2.623577 0.250000
v 0.622011 1.940613 0.250000
v 1.043961 1.561749 0.250000
v 0.222981 1.561749 0.250000
v 1.043961 3.064541 0.250000
v 1.125000 1.561749 0.181877
v 1.125000 3.064541 0.181876
v 1.125000 1.561749 -0.181877
v 1.125000 3.064541 -0.181877
v 1.043961 1.561749 -0.250000
v 1.043961 3.064541 -0.250000
v -1.125000 3.064541 0.181876
v -1.000000 3.128370 0.181876
v -1.043961 3.064541 0.250000
v -1.059842 3.128371 0.136573
v -1.059842 3.128371 -0.136574
v -1.125000 3.064541 -0.181877
v -1.000000 3.128371 -0.181877
v -1.043961 3.064541 -0.250000
v -1.043961 3.064541 -0.250000
v -0.709031 2.184352 -0.250000
v -0.709031 2.623577 -0.250000
v -1.043961 2.184352 -0.250000
v -0.738673 2.128371 -0.205350
v -1.013785 2.128371 -0.205350
v -0.669650 2.128371 -0.149394
v -1.080350 2.128371 -0.149394
v -0.669650 2.128371 0.149393
v -1.080350 2.128371 0.149393
v -0.738673 2.128371 0.205350
v -1.013785 2.128371 0.205350
v -1.043961 3.064541 -0.250000
v 1.000000 3.128371 -0.181877
v -1.000000 3.128371 -0.181877
v 1.043961 3.064541 -0.250000
v -0.624483 2.705804 -0.250000
v -0.709031 2.623577 -0.250000
v 0.614687 2.705804 -0.250000
v 0.689966 2.623577 -0.250000
v 0.625000 2.562896 -0.181877
v -0.625000 2.562896 -0.181877
v -0.709031 2.184352 -0.250000
v 0.554041 2.628371 -0.181877
v 0.625000 2.562896 0.181876
v -0.559496 2.628371 -0.181877
v -0.625000 2.184352 -0.181877
v -0.625000 2.562896 0.181876
v -0.559496 2.628371 0.181876
v 0.554041 2.628371 0.181876
v -0.669650 2.128371 -0.149394
v -0.738673 2.128371 -0.205350
v -0.669650 2.128371 0.149393
v -0.625000 2.184352 0.181876
v -0.738673 2.128371 0.205350
v -0.709031 2.184352 0.250000
v -1.013785 2.128371 0.205350
v 0.614687 2.705804 0.250000
v 0.689966 2.623577 0.250000
v 1.043961 3.064541 0.250000
v -1.043961 3.064541 0.250000
v 1.000000 3.128370 0.181876
v -1.000000 3.128370 0.181876
v -0.624483 2.705803 0.250000
v -0.709031 2.623577 0.250000
v -1.043961 2.184352 0.250000
v -1.080350 2.128371 0.149393
v -1.125000 3.064541 0.181876
v -1.125000 2.184352 0.181876
v -1.080350 2.128371 -0.149394
v -1.125000 3.064541 -0.181877
v -1.125000 2.184352 -0.181877
v -1.013785 2.128371 -0.205350
v -1.043961 3.064541 -0.250000
v -1.043961 2.184352 -0.250000
v -0.117149 2.003371 0.181876
v -0.117149 2.003371 -0.181877
v 0.562830 2.003371 -0.181877
v 0.562830 2.003370 0.181876
v 0.625000 2.068255 0.181876
v 0.562830 2.003370 0.181876
v 0.625000 2.068255 -0.181877
v -1.000000 3.128370 0.181876
v -1.059842 3.128371 0.136573
v -1.059842 3.128371 -0.136574
v -1.000000 3.128371 -0.181877
v 1.000000 3.128371 -0.181877
v 1.000000 3.128370 0.181876
v 1.059842 3.128371 0.136573
v 1.059842 3.128371 -0.136574
v -0.117149 2.003371 0.181876
v -0.183534 2.003371 0.125681
v -0.183534 2.003371 -0.125682
v -0.117149 2.003371 -0.181877
vn -0.0262 0.9878 -0.1536
vn -0.4161 0.9071 -0.0633
vn -0.4161 0.9071 0.0633
vn -0.0262 0.9878 0.1536
vn 0.0262 0.9878 0.1536
vn 0.0262 0.9878 -0.1536
vn 0.4154 0.9074 0.0635
vn 0.4154 0.9074 -0.0635
vn -0.9828 0.0666 0.1724
vn -0.9828 0.0667 -0.1724
vn -0.9828 -0.0664 -0.1724
vn -0.9828 -0.0664 0.1724
vn -0.3853 -0.9210 -0.0582
vn -0.3853 -0.9210 0.0582
vn -0.0238 -0.9898 0.1407
vn -0.0239 -0.9898 -0.1407
vn 0.0238 -0.9898 -0.1407
vn -0.1887 -0.0657 0.9798
vn 0.0238 -0.9898 0.1407
vn 0.3845 -0.9213 -0.0584
vn -0.1888 0.0661 0.9798
vn -0.9828 0.0666 0.1725
vn 0.1886 -0.0657 0.9799
vn 0.1886 0.0661 0.9798
vn 0.9826 0.0667 0.1731
vn 0.9827 -0.0664 0.1731
vn 0.3845 -0.9213 0.0584
vn 0.9827 -0.0664 -0.1731
vn 0.9826 0.0667 -0.1731
vn 0.9827 -0.0664 -0.1730
vn 0.1886 -0.0657 -0.9799
vn 0.1887 0.0661 -0.9798
vn -0.1888 0.0661 -0.9798
vn -0.9828 0.0666 -0.1724
vn -0.1887 -0.0657 -0.9798
vn -0.9828 -0.0664 -0.1723
vn -0.3852 -0.9210 -0.0582
vn 0.1585 0.1602 0.9743
vn 0.9822 0.0307 0.1852
vn 0.0040 0.9832 0.1826
vn 0.4402 0.8948 0.0750
vn 0.4402 0.8948 -0.0750
vn 0.9822 0.0307 -0.1852
vn 0.0040 0.9832 -0.1826
vn 0.1585 0.1602 -0.9743
vn 0.2574 -0.1079 -0.9603
vn -0.0448 -0.0077 -0.9990
vn -0.0430 0.0067 -0.9991
vn -0.0146 0.1210 -0.9925
vn 0.0166 -0.1089 -0.9939
vn 0.0115 -0.9839 -0.1783
vn 0.0746 -0.9761 -0.2041
vn 0.9822 -0.0295 -0.1855
vn 0.0115 -0.9839 0.1783
vn 0.0746 -0.9761 0.2042
vn 0.4167 -0.9068 -0.0635
vn 0.9822 -0.0294 0.1855
vn 0.4167 -0.9068 0.0634
vn 0.2574 -0.1079 0.9603
vn 0.0166 -0.1089 0.9939
vn -0.0801 0.9761 0.2020
vn -0.0123 0.9817 0.1900
vn -0.0146 0.1210 0.9925
vn -0.2222 0.1518 0.9631
vn 0.0745 -0.9761 0.2041
vn 0.9543 -0.1218 0.2730
vn 0.0588 -0.0093 0.9982
vn 0.1166 -0.0566 0.9916
vn -0.2221 0.1518 0.9631
vn 0.9543 -0.1219 -0.2730
vn 0.0745 -0.9761 -0.2041
vn 0.9727 -0.0827 0.2170
vn 0.0588 -0.0093 -0.9982
vn 0.9727 -0.0827 -0.2170
vn -0.2222 0.1518 -0.9631
vn 0.1166 -0.0566 -0.9916
vn 0.1729 -0.9844 -0.0326
vn 0.1729 -0.9844 0.0326
vn 0.0618 -0.8998 -0.4319
vn -0.2019 -0.0482 -0.9782
vn -0.1728 -0.9844 -0.0319
vn -0.0620 -0.8997 -0.4320
vn -0.9779 0.0508 -0.2030
vn -0.9787 -0.0383 -0.2019
vn -0.1728 -0.9844 0.0319
vn 0.0617 -0.8998 0.4319
vn -0.0619 -0.8997 0.4320
vn -0.2019 -0.0482 0.9782
vn -0.9787 -0.0383 0.2019
vn -0.9779 0.0508 0.2030
vn -0.4156 0.9067 0.0724
vn -0.4156 0.9067 -0.0724
vn -0.0123 0.9817 -0.1900
vn -0.0801 0.9761 -0.2020
vn -0.9711 0.1008 -0.2165
vn -0.9685 -0.1151 -0.2207
vn -0.9711 0.1008 0.2165
vn -0.9685 -0.1151 0.2207
vn -0.0430 0.0067 0.9991
vn -0.0448 -0.0077 0.9990
vn 0.2574 -0.1080 0.9603
vn 0.9822 -0.0294 -0.1855
vn -0.1156 0.1949 0.9740
vn -0.0040 0.9832 0.1826
vn -0.9813 0.0514 0.1856
vn -0.4402 0.8948 0.0750
vn -0.4402 0.8948 -0.0750
vn -0.9813 0.0514 -0.1856
vn -0.0040 0.9832 -0.1826
vn -0.1156 0.1949 -0.9740
vn 0.0564 -0.0112 -0.9983
vn 0.1136 -0.0556 -0.9920
vn -0.2004 -0.0478 -0.9785
vn 0.0617 -0.8959 -0.4399
vn -0.0622 -0.8956 -0.4405
vn 0.1735 -0.9844 -0.0302
vn -0.1733 -0.9844 -0.0289
vn 0.1735 -0.9844 0.0302
vn -0.1733 -0.9844 0.0289
vn 0.0617 -0.8959 0.4399
vn -0.0622 -0.8956 0.4405
vn 0.0047 -0.0549 -0.9985
vn -0.0045 -0.0559 -0.9984
vn -0.9685 -0.1150 -0.2207
vn 0.9538 -0.1374 -0.2673
vn -0.0519 -0.9704 -0.2358
vn -0.9685 -0.1151 0.2208
vn 0.0519 -0.9692 -0.2407
vn 0.9754 -0.0826 -0.2043
vn 0.9538 -0.1374 0.2673
vn 0.0519 -0.9692 0.2407
vn -0.0519 -0.9704 0.2358
vn 0.9754 -0.0827 0.2043
vn 0.1136 -0.0556 0.9920
vn -0.0045 -0.0559 0.9984
vn 0.0047 -0.0550 0.9985
vn 0.0564 -0.0112 0.9983
vn -0.2004 -0.0478 0.9786
vn -0.9813 0.0514 0.1857
vn -0.9819 -0.0381 0.1856
vn -0.9813 0.0513 -0.1857
vn -0.9819 -0.0381 -0.1856
vn -0.4156 0.9067 -0.0723
vn -0.4156 0.9067 0.0723
vt 0.700000 0.700000
vt 0.650000 0.700000
vt 0.650000 0.600000
vt 0.800000 0.300000
vt 0.850000 0.300000
vt 0.850000 0.400000
vt 0.200000 0.700000
vt 0.150000 0.700000
vt 0.150000 0.600000
vt 0.300000 0.300000
vt 0.350000 0.300000
vt 0.350000 0.400000
s 1
usemtl pq0000
f 3/1/1 2/2/2 1/3/3
f 4/4/4 3/5/1 1/6/3
f 4/4/4 5/5/5 3/6/1
f 5/4/5 6/5/6 3/6/1
f 5/4/5 7/5/7 6/6/6
f 7/4/7 8/5/8 6/6/6
f 11/7/9 10/8/3 9/9/2
f 12/10/10 11/11/9 9/12/2
f 12/10/10 13/11/11 11/12/9
f 13/10/11 14/11/12 11/12/9
f 13/10/11 15/11/13 14/12/12
f 15/10/13 16/11/14 14/12/12
f 17/10/15 16/11/14 15/12/13
f 18/10/16 17/11/15 15/12/13
f 18/10/16 19/11/17 17/12/15
f 17/10/15 20/11/18 16/12/14
f 20/10/18 21/11/12 16/12/14
f 19/10/17 22/11/19 17/12/15
f 19/10/17 23/11/20 22/12/19
f 20/10/18 24/11/21 21/12/12
f 24/10/21 25/11/22 21/12/12
f 20/10/18 17/11/15 26/12/23
f 17/10/15 22/11/19 26/12/23
f 24/10/21 27/11/4 25/12/22
f 27/10/4 28/11/3 25/12/22
f 24/10/21 20/11/18 29/12/24
f 24/10/21 29/11/24 27/12/4
f 20/10/18 26/11/23 29/12/24
f 29/10/24 30/11/5 27/12/4
f 29/10/24 31/11/25 30/12/5
f 29/10/24 26/11/23 31/12/25
f 31/10/25 32/11/7 30/12/5
f 26/10/23 33/11/26 31/12/25
f 26/10/23 22/11/19 33/12/26
f 22/10/19 34/11/27 33/12/26
f 23/10/20 34/11/27 22/12/19
f 35/10/26 34/11/27 23/12/20
f 36/10/28 35/11/26 23/12/20
f 36/10/28 37/11/29 35/12/26
f 37/10/29 38/11/25 35/12/26
f 37/10/29 39/11/8 38/12/25
f 39/10/8 40/11/7 38/12/25
f 43/10/30 42/11/20 41/12/17
f 44/10/31 43/11/30 41/12/17
f 44/10/31 41/11/17 45/12/16
f 44/10/31 46/11/32 43/12/30
f 46/10/32 47/11/29 43/12/30
f 46/10/32 48/11/6 47/12/29
f 48/10/6 49/11/8 47/12/29
f 50/10/1 48/11/6 46/12/32
f 51/10/33 50/11/1 46/12/32
f 51/10/33 46/11/32 44/12/31
f 50/10/1 51/11/33 52/12/2
f 51/10/33 53/11/34 52/12/2
f 54/10/35 51/11/33 44/12/31
f 51/10/33 54/11/35 53/12/34
f 54/10/35 44/11/31 45/12/16
f 54/10/35 55/11/36 53/12/34
f 54/10/35 45/11/16 55/12/36
f 45/10/16 56/11/37 55/12/36
f 59/10/38 58/11/39 57/12/40
f 58/10/39 60/11/41 57/12/40
f 60/10/41 58/11/39 61/12/42
f 58/10/39 62/11/43 61/12/42
f 61/10/42 62/11/43 63/12/44
f 62/10/43 64/11/45 63/12/44
f 64/10/45 66/11/46 65/12/47
f 66/10/46 67/11/48 65/12/47
f 66/10/46 68/11/49 67/12/48
f 66/10/46 69/11/50 68/12/49
f 66/10/46 70/11/51 69/12/50
f 70/10/51 71/11/52 69/12/50
f 66/10/46 72/11/53 70/12/51
f 70/10/51 73/11/54 71/12/52
f 73/10/54 74/11/55 71/12/52
f 72/10/53 75/11/56 70/12/51
f 70/10/51 75/11/56 73/12/54
f 75/10/56 72/11/53 76/12/57
f 77/10/58 75/11/56 76/12/57
f 75/10/56 77/11/58 73/12/54
f 77/10/58 76/11/57 73/12/54
f 76/10/57 78/11/59 73/12/54
f 73/10/54 78/11/59 74/12/55
f 78/10/59 79/11/60 74/12/55
f 82/10/61 81/11/62 80/12/63
f 81/10/62 83/11/64 80/12/63
f 80/10/63 83/11/64 84/12/60
f 86/10/65 84/11/60 85/12/66
f 84/10/60 87/11/67 85/12/66
f 85/10/66 87/11/67 88/12/68
f 89/10/69 87/11/67 84/12/60
f 88/10/68 87/11/67 89/12/69
f 86/10/65 85/11/66 90/12/70
f 91/10/71 86/11/65 90/12/70
f 91/10/71 90/11/70 92/12/50
f 93/10/72 85/11/66 88/12/68
f 90/10/70 85/11/66 93/12/72
f 90/10/70 94/11/73 92/12/50
f 95/10/74 90/11/70 93/12/72
f 90/10/70 95/11/74 94/12/73
f 92/10/50 94/11/73 96/12/75
f 92/10/50 96/11/75 97/12/49
f 95/10/74 98/11/76 94/12/73
f 94/10/73 98/11/76 96/12/75
f 95/10/74 93/11/72 99/12/77
f 95/10/74 99/11/77 98/12/76
f 93/10/72 88/11/68 100/12/78
f 93/10/72 100/11/78 99/12/77
f 99/10/77 101/11/79 98/12/76
f 98/10/76 102/11/80 96/12/75
f 98/10/76 101/11/79 102/12/80
f 99/10/77 103/11/81 101/12/79
f 99/10/77 100/11/78 103/12/81
f 101/10/79 104/11/82 102/12/80
f 103/10/81 104/11/82 101/12/79
f 102/10/80 104/11/82 103/12/81
f 96/10/75 102/11/80 105/12/83
f 106/10/84 102/11/80 103/12/81
f 102/10/80 106/11/84 105/12/83
f 100/10/78 107/11/85 103/12/81
f 106/10/84 103/11/81 107/12/85
f 88/10/68 108/11/86 100/12/78
f 100/10/78 108/11/86 107/12/85
f 109/10/87 108/11/86 88/12/68
f 108/10/86 109/11/87 107/12/85
f 110/10/88 109/11/87 88/12/68
f 107/10/85 109/11/87 110/12/88
f 110/10/88 88/11/68 89/12/69
f 111/10/89 107/11/85 110/12/88
f 111/10/89 106/11/84 107/12/85
f 111/10/89 110/11/88 89/12/69
f 106/10/84 111/11/89 112/12/90
f 112/10/90 111/11/89 89/12/69
f 105/10/83 106/11/84 112/12/90
f 89/10/69 113/11/62 112/12/90
f 113/10/62 114/11/91 112/12/90
f 105/10/83 112/11/90 114/12/91
f 115/10/92 105/11/83 114/12/91
f 115/10/92 116/11/93 105/12/83
f 116/10/93 96/11/75 105/12/83
f 97/10/49 96/11/75 116/12/93
f 117/10/94 97/11/49 116/12/93
f 117/10/94 118/11/95 97/12/49
f 118/10/95 119/11/48 97/12/49
f 118/10/95 120/11/96 119/12/48
f 120/10/96 121/11/47 119/12/48
f 118/10/95 122/11/97 120/12/96
f 122/10/97 123/11/98 120/12/96
f 122/10/97 124/11/99 123/12/98
f 122/10/97 125/11/61 124/12/99
f 124/10/99 126/11/100 123/12/98
f 125/10/61 127/11/63 124/12/99
f 124/10/99 128/11/101 126/12/100
f 124/10/99 127/11/63 128/12/101
f 128/10/101 127/11/63 129/12/60
f 128/10/101 130/11/38 126/12/100
f 128/10/101 131/11/57 130/12/38
f 131/10/57 132/11/39 130/12/38
f 131/10/57 133/11/102 132/12/39
f 133/10/102 134/11/43 132/12/39
f 133/10/102 135/11/46 134/12/43
f 135/10/46 136/11/45 134/12/43
f 139/10/103 138/11/104 137/12/105
f 138/10/104 140/11/106 137/12/105
f 137/10/105 140/11/106 141/12/107
f 142/10/108 137/11/105 141/12/107
f 141/10/107 143/11/109 142/12/108
f 143/10/109 144/11/110 142/12/108
f 147/10/111 146/11/112 145/12/110
f 146/10/112 148/11/113 145/12/110
f 146/10/112 149/11/114 148/12/113
f 149/10/114 150/11/115 148/12/113
f 149/10/114 151/11/116 150/12/115
f 151/10/116 152/11/117 150/12/115
f 151/10/116 153/11/118 152/12/117
f 153/10/118 154/11/119 152/12/117
f 153/10/118 155/11/120 154/12/119
f 155/10/120 156/11/121 154/12/119
f 159/10/109 158/11/44 157/12/110
f 158/10/44 160/11/45 157/12/110
f 157/10/110 160/11/45 161/12/122
f 157/10/110 161/11/122 162/12/111
f 160/10/45 163/11/123 161/12/122
f 160/10/45 164/11/47 163/12/123
f 163/10/123 164/11/47 165/12/124
f 166/10/125 162/11/111 161/12/122
f 167/10/112 162/11/111 166/12/125
f 168/10/126 163/11/123 165/12/124
f 168/10/126 165/11/124 169/12/127
f 170/10/128 161/11/122 163/12/123
f 170/10/128 166/11/125 161/12/122
f 168/10/126 170/11/128 163/12/123
f 171/10/129 167/11/112 166/12/125
f 172/10/130 166/11/125 170/12/128
f 171/10/129 166/11/125 172/12/130
f 173/10/131 170/11/128 168/12/126
f 173/10/131 172/11/130 170/12/128
f 174/10/132 168/11/126 169/12/127
f 174/10/132 173/11/131 168/12/126
f 171/10/129 175/11/116 167/12/112
f 175/10/116 176/11/114 167/12/112
f 177/10/118 175/11/116 171/12/129
f 178/10/133 177/11/118 171/12/129
f 178/10/133 171/11/129 172/12/130
f 177/10/118 178/11/133 179/12/120
f 178/10/133 180/11/134 179/12/120
f 178/10/133 172/11/130 180/12/134
f 179/10/120 180/11/134 181/12/121
f 174/10/132 169/11/127 182/12/135
f 169/10/127 183/11/100 182/12/135
f 182/10/135 183/11/100 184/12/38
f 182/10/135 184/11/38 185/12/103
f 185/10/103 184/11/38 186/12/40
f 187/10/104 185/11/103 186/12/40
f 174/10/132 182/11/135 188/12/136
f 188/10/136 182/11/135 185/12/103
f 173/10/131 174/11/132 188/12/136
f 172/10/130 173/11/131 189/12/137
f 173/10/131 188/11/136 189/12/137
f 172/10/130 189/11/137 180/12/134
f 189/10/137 188/11/136 185/12/103
f 180/10/134 189/11/137 185/12/103
f 180/10/134 190/11/138 181/12/121
f 190/10/138 180/11/134 185/12/103
f 191/10/119 181/11/121 190/12/138
f 190/10/138 185/11/103 192/12/139
f 193/10/140 191/11/119 190/12/138
f 193/10/140 190/11/138 192/12/139
f 194/10/117 191/11/119 193/12/140
f 193/10/140 192/11/139 195/12/141
f 196/10/142 194/11/117 193/12/140
f 196/10/142 193/11/140 195/12/141
f 194/10/117 196/11/142 197/12/115
f 196/10/142 195/11/141 198/12/110
f 196/10/142 199/11/113 197/12/115
f 199/10/113 196/11/142 198/12/110
f 202/4/94 201/5/93 200/6/62
f 203/4/61 202/5/94 200/6/62
f 202/4/94 205/5/61 204/6/97
f 206/4/95 202/5/94 204/6/97
f 209/4/107 208/5/106 207/6/104
f 210/4/109 209/5/107 207/6/104
f 210/4/109 207/5/104 211/6/44
f 207/4/104 212/5/40 211/6/44
f 212/4/40 213/5/41 211/6/44
f 213/4/41 214/5/42 211/6/44
f 217/4/143 216/5/144 215/6/62
f 218/4/93 217/5/143 215/6/62
