# Blender 3.6.1
# www.blender.org
mtllib pvpd_PoisonShroom_01.mtl
o pvpd_PoisonShroom_01
v -1.347859 1.010644 1.171298
v -1.128109 1.010644 1.348850
v -1.537566 2.172246 1.339280
v -1.537566 2.172246 -1.339281
v -1.294899 2.172246 -1.537566
v 1.294899 2.172246 -1.537566
v 1.134068 2.352668 -1.357422
v 1.353818 2.352668 -1.179870
v 1.537566 2.172246 -1.339281
v 1.353818 2.352668 1.179287
v 1.294899 1.199525 -1.537566
v 1.127970 1.010644 -1.348326
v -1.294899 1.199525 -1.537566
v -1.128109 1.010644 -1.348326
v 1.537566 2.172246 1.339280
v 1.294899 2.172246 1.537566
v 1.294899 1.199525 1.537566
v 1.127970 1.010644 1.348850
v -1.294899 2.172246 1.537566
v -1.294899 1.199525 1.537566
v -1.136570 2.352668 1.356839
v -1.356320 2.352668 1.179287
v -1.356320 2.352668 -1.179870
v -1.136570 2.352668 -1.357422
v 1.134068 2.352668 1.356839
v -1.537566 1.199525 1.339280
v -1.347859 1.010644 -1.170774
v -1.537566 1.199525 -1.339281
v 1.537566 1.199525 -1.339281
v 1.347720 1.010644 -1.170774
v 1.347720 1.010644 1.171298
v 1.537566 1.199525 1.339280
v -0.677672 3.141078 0.808375
v -0.807570 3.141078 0.677132
v -0.807570 3.141078 -0.676469
v 0.677040 3.141078 -0.807712
v 0.677040 3.141078 0.808375
v 0.806937 3.141078 -0.676469
v -0.814538 2.992367 -0.956555
v -0.956555 2.992367 -0.814538
v -0.956555 2.313946 -0.814538
v -0.814538 2.313946 -0.956555
v 0.814538 2.992367 -0.956555
v -0.677672 3.141078 -0.807712
v -0.956555 2.992367 0.814538
v -0.814538 2.992367 0.956555
v 0.956555 2.992367 -0.814538
v 0.814538 2.313946 -0.956555
v 0.806937 3.141078 0.677132
v 0.956555 2.313946 -0.814538
v 0.956555 2.992367 0.814538
v 0.956555 2.313946 0.814538
v 0.814538 2.313946 0.956555
v 0.814538 2.992367 0.956555
v -0.814538 2.313946 0.956555
v -0.956555 2.313946 0.814538
v -0.959285 -0.000000 -0.796215
v -0.796215 1.207534 -0.959285
v -0.959285 1.207534 -0.796216
v -0.796215 -0.000000 -0.959285
v 0.796216 1.207534 -0.959285
v 0.796216 -0.000000 -0.959285
v 0.959285 0.000000 0.796215
v 0.959285 1.207534 -0.796216
v 0.959285 -0.000000 -0.796215
v 0.959285 1.207535 0.796215
v 0.796216 0.000000 0.959285
v 0.796216 1.207535 0.959285
v -0.796215 0.000000 0.959285
v -0.796215 1.207535 0.959285
v -0.959285 0.000000 0.796215
v -0.959285 1.207535 0.796215
v 0.132832 1.632205 1.559625
v 0.132832 2.018182 1.559625
v 0.489204 2.018182 1.559625
v 0.489204 1.632205 1.559625
v 1.558200 1.275151 -0.567478
v 1.558200 1.750949 -0.567478
v 1.558200 1.750949 -1.043276
v 1.558200 1.275151 -1.043276
v 0.137294 3.160556 0.069992
v 0.576194 3.160556 0.069992
v 0.576194 3.160556 0.508892
v 0.137294 3.160556 0.508892
v -0.448032 3.160556 -0.442764
v -0.110585 3.160556 -0.442764
v -0.110585 3.160556 -0.105317
v -0.448032 3.160556 -0.105317
v -0.545011 1.267153 -1.558805
v -0.545011 1.742951 -1.558805
v -1.020809 1.742951 -1.558805
v -1.020809 1.267153 -1.558805
v -1.556695 1.267634 0.586983
v -1.556695 1.743432 0.586983
v -1.556695 1.743433 1.062782
v -1.556695 1.267634 1.062782
vn -0.3831 -0.9126 0.1425
vn -0.3831 -0.9128 -0.1415
vn -0.1019 -0.9148 -0.3908
vn -0.1026 -0.9145 0.3915
vn 0.1019 -0.9146 0.3914
vn 0.1025 -0.9147 -0.3908
vn 0.3829 -0.9128 -0.1422
vn 0.3830 -0.9128 0.1417
vn -0.8215 0.4007 -0.4057
vn -0.8214 0.4009 0.4057
vn -0.5852 0.7811 0.2179
vn -0.5853 0.7809 -0.2184
vn -0.1638 0.7647 -0.6232
vn -0.3230 0.4021 -0.8567
vn 0.3229 0.4025 -0.8565
vn 0.1615 0.7656 -0.6227
vn 0.5809 0.7845 -0.2168
vn 0.8213 0.4020 -0.4048
vn 0.8212 0.4022 0.4048
vn 0.5808 0.7847 0.2164
vn 0.3229 -0.4030 -0.8563
vn 0.8211 -0.4014 -0.4057
vn -0.3227 -0.4025 -0.8567
vn -0.8215 -0.4009 -0.4056
vn 0.8215 -0.4008 0.4055
vn 0.3228 0.4030 0.8564
vn 0.1614 0.7665 0.6216
vn 0.3228 -0.4022 0.8568
vn -0.3229 0.4026 0.8566
vn -0.1637 0.7656 0.6221
vn -0.3231 -0.4026 0.8565
vn -0.8213 -0.4011 0.4057
vn -0.0000 1.0000 -0.0000
vn -0.9239 -0.0000 -0.3827
vn -0.8385 0.4044 -0.3652
vn -0.3653 0.4041 -0.8386
vn -0.3827 -0.0000 -0.9239
vn 0.3827 -0.0000 -0.9239
vn 0.3655 0.4047 -0.8382
vn -0.1860 0.7758 -0.6030
vn -0.6043 0.7754 -0.1832
vn 0.1863 0.7757 -0.6030
vn -0.6045 0.7750 0.1845
vn 0.6030 0.7763 -0.1838
vn -0.8384 0.4044 0.3653
vn -0.3657 0.4039 0.8385
vn -0.1869 0.7744 0.6045
vn 0.1856 0.7748 0.6043
vn 0.8381 0.4053 -0.3652
vn 0.6030 0.7763 0.1835
vn 0.9239 -0.0000 -0.3827
vn 0.8385 0.4046 0.3650
vn 0.9239 -0.0000 0.3827
vn 0.3827 -0.0000 0.9239
vn 0.3656 0.4038 0.8386
vn -0.3827 -0.0000 0.9239
vn -0.9239 -0.0000 0.3827
vn -0.0000 -0.0000 1.0000
vn 1.0000 -0.0000 -0.0000
vn -0.0000 -0.0000 -1.0000
vn -1.0000 -0.0000 -0.0000
vt 0.083500 0.833500
vt 0.083250 0.833500
vt 0.083250 0.833000
vt 0.166500 0.666500
vt 0.166750 0.666500
vt 0.166750 0.667000
vt 0.124875 0.749750
vt 0.125125 0.749750
vt 0.125125 0.750250
vt 0.124875 0.750250
vt 0.333500 0.833500
vt 0.333250 0.833500
vt 0.333250 0.833000
vt 0.416500 0.666500
vt 0.416750 0.666500
vt 0.416750 0.667000
vt 0.334000 0.333500
vt 0.333000 0.333500
vt 0.333000 0.333000
vt 0.666000 0.166500
vt 0.667000 0.166500
vt 0.667000 0.167000
vt 0.583500 0.833500
vt 0.583250 0.833500
vt 0.583250 0.833000
vt 0.666500 0.666500
vt 0.666750 0.666500
vt 0.666750 0.667000
vt 0.833500 0.833500
vt 0.833250 0.833500
vt 0.833250 0.833000
vt 0.916500 0.666500
vt 0.916750 0.666500
vt 0.916750 0.667000
s 1
usemtl pvpd_PoisonShroom_01
f 1/1/1 27/2/2 14/3/3
f 2/4/4 1/5/1 14/6/3
f 18/1/5 2/2/4 14/3/3
f 12/4/6 18/5/5 14/6/3
f 18/1/5 12/2/6 30/3/7
f 31/4/8 18/5/5 30/6/7
f 4/1/9 3/2/10 22/3/11
f 23/4/12 4/5/9 22/6/11
f 4/1/9 23/2/12 24/3/13
f 5/4/14 4/5/9 24/6/13
f 6/1/15 5/2/14 24/3/13
f 7/4/16 6/5/15 24/6/13
f 6/1/15 7/2/16 8/3/17
f 9/4/18 6/5/15 8/6/17
f 15/1/19 9/2/18 8/3/17
f 10/4/20 15/5/19 8/6/17
f 6/1/15 11/2/21 5/3/14
f 11/4/21 6/5/15 9/6/18
f 29/1/22 11/2/21 9/3/18
f 12/4/6 11/5/21 29/6/22
f 30/1/7 12/2/6 29/3/22
f 11/4/21 12/5/6 13/6/23
f 11/1/21 13/2/23 5/3/14
f 12/4/6 14/5/3 13/6/23
f 14/1/3 27/2/2 13/3/23
f 27/4/2 28/5/24 13/6/23
f 13/1/23 28/2/24 5/3/14
f 28/4/24 4/5/9 5/6/14
f 29/1/22 9/2/18 32/3/25
f 9/4/18 15/5/19 32/6/25
f 15/1/19 16/2/26 32/3/25
f 15/4/19 10/5/20 16/6/26
f 10/1/20 25/2/27 16/3/26
f 16/4/26 17/5/28 32/6/25
f 32/1/25 17/2/28 31/3/8
f 17/4/28 18/5/5 31/6/8
f 2/1/4 18/2/5 17/3/28
f 19/4/29 16/5/26 25/6/27
f 21/1/30 19/2/29 25/3/27
f 17/7/28 16/8/26 20/9/31
f 20/9/31 2/10/4 17/7/28
f 16/4/26 19/5/29 20/6/31
f 19/1/29 21/2/30 3/3/10
f 19/4/29 3/5/10 20/6/31
f 21/1/30 22/2/11 3/3/10
f 20/4/31 26/5/32 2/6/4
f 3/1/10 26/2/32 20/3/31
f 26/4/32 1/5/1 2/6/4
f 26/1/32 3/2/10 28/3/24
f 3/4/10 4/5/9 28/6/24
f 23/11/33 22/12/33 21/13/33
f 24/14/33 23/15/33 21/16/33
f 24/11/33 21/12/33 7/13/33
f 21/14/33 25/15/33 7/16/33
f 7/11/33 25/12/33 10/13/33
f 8/14/33 7/15/33 10/16/33
f 27/1/2 1/2/1 26/3/32
f 28/4/24 27/5/2 26/6/32
f 31/1/8 30/2/7 29/3/22
f 32/4/25 31/5/8 29/6/22
f 35/11/33 34/12/33 33/13/33
f 44/14/33 35/15/33 33/16/33
f 44/11/33 33/12/33 36/13/33
f 33/14/33 37/15/33 36/16/33
f 36/11/33 37/12/33 49/13/33
f 38/14/33 36/15/33 49/16/33
f 41/1/34 40/2/35 39/3/36
f 42/4/37 41/5/34 39/6/36
f 48/1/38 42/2/37 39/3/36
f 43/7/39 48/8/38 39/9/36
f 39/9/36 44/10/40 43/7/39
f 39/4/36 40/5/35 44/6/40
f 40/1/35 35/2/41 44/3/40
f 44/4/40 36/5/42 43/6/39
f 34/1/43 35/2/41 40/3/35
f 43/4/39 36/5/42 38/6/44
f 45/1/45 34/2/43 40/3/35
f 34/4/43 45/5/45 46/6/46
f 33/1/47 34/2/43 46/3/46
f 37/4/48 33/5/47 46/6/46
f 47/1/49 43/2/39 38/3/44
f 48/4/38 43/5/39 47/6/49
f 47/1/49 38/2/44 49/3/50
f 50/4/51 48/5/38 47/6/49
f 51/1/52 47/2/49 49/3/50
f 50/4/51 47/5/49 51/6/52
f 49/1/50 37/2/48 51/3/52
f 52/4/53 50/5/51 51/6/52
f 52/1/53 51/2/52 53/3/54
f 37/4/48 54/5/55 51/6/52
f 51/1/52 54/2/55 53/3/54
f 54/4/55 37/5/48 46/6/46
f 53/1/54 54/2/55 46/3/46
f 55/4/56 53/5/54 46/6/46
f 55/1/56 46/2/46 56/3/57
f 46/4/46 45/5/45 56/6/57
f 56/1/57 45/2/45 40/3/35
f 41/4/34 56/5/57 40/6/35
f 59/17/34 58/18/37 57/19/34
f 58/20/37 60/21/37 57/22/34
f 58/17/37 61/18/38 60/19/37
f 61/20/38 62/21/38 60/22/37
f 61/17/38 64/18/51 62/19/38
f 64/20/51 65/21/51 62/22/38
f 65/17/51 64/18/51 63/19/53
f 64/20/51 66/21/53 63/22/53
f 67/17/54 63/18/53 66/19/53
f 68/20/54 67/21/54 66/22/53
f 67/17/54 68/18/54 69/19/56
f 68/20/54 70/21/56 69/22/56
f 71/17/57 69/18/56 70/19/56
f 72/20/57 71/21/57 70/22/56
f 71/17/57 72/18/57 57/19/34
f 72/20/57 59/21/34 57/22/34
f 75/23/58 74/24/58 73/25/58
f 76/26/58 75/27/58 73/28/58
f 79/23/59 78/24/59 77/25/59
f 80/26/59 79/27/59 77/28/59
f 83/29/33 82/30/33 81/31/33
f 84/32/33 83/33/33 81/34/33
f 87/29/33 86/30/33 85/31/33
f 88/32/33 87/33/33 85/34/33
f 91/23/60 90/24/60 89/25/60
f 92/26/60 91/27/60 89/28/60
f 95/23/61 94/24/61 93/25/61
f 96/26/61 95/27/61 93/28/61
