# Blender 3.6.1
# www.blender.org
mtllib pvpd_PoisonShroom_02.mtl
o pvpd_PoisonShroom_02
v 1.557447 1.578855 0.170307
v 1.557447 1.919207 0.170307
v 1.557447 1.919207 -0.170044
v 1.557447 1.578855 -0.170044
v -1.348611 1.009137 -1.171184
v -1.348611 1.009137 1.170888
v -1.128861 1.009137 1.348440
v 1.127218 1.009137 1.348440
v 1.346968 1.009137 -1.171184
v 1.346968 1.009137 1.170888
v -1.137322 2.351161 -1.357832
v -1.295651 2.170739 -1.537976
v 1.294147 2.170739 -1.537976
v 1.294147 1.198018 -1.537976
v 1.536814 1.198018 -1.339691
v 1.127218 1.009137 -1.348736
v -1.295651 1.198018 -1.537976
v -1.128861 1.009137 -1.348736
v 1.536814 1.198018 1.338870
v 1.536814 2.170739 -1.339691
v 1.536814 2.170739 1.338870
v 1.294147 2.170739 1.537156
v 1.294147 1.198018 1.537156
v -1.295651 2.170739 1.537156
v -1.295651 1.198018 1.537156
v -1.538318 2.170739 1.338870
v -1.538318 1.198018 -1.339691
v -1.538318 2.170739 -1.339691
v -1.137322 2.351161 1.356429
v -1.357072 2.351161 1.178877
v -1.357072 2.351161 -1.180280
v 1.133316 2.351161 -1.357832
v 1.133316 2.351161 1.356429
v 1.353065 2.351161 1.178877
v 1.353065 2.351161 -1.180280
v -1.538318 1.198018 1.338870
v -0.678425 3.139570 0.807965
v -0.808322 3.139570 0.676722
v -0.808322 3.139570 -0.676879
v -0.678425 3.139570 -0.808122
v 0.676288 3.139570 -0.808122
v 0.676288 3.139570 0.807965
v -0.815290 2.990860 -0.956965
v -0.957307 2.990860 -0.814948
v -0.957307 2.312439 -0.814948
v -0.815290 2.312439 -0.956965
v 0.813786 2.312439 -0.956965
v 0.813786 2.990860 -0.956965
v 0.806185 3.139570 -0.676879
v -0.957307 2.990860 0.814128
v -0.815290 2.990860 0.956145
v 0.955803 2.990860 -0.814948
v 0.806185 3.139570 0.676722
v 0.955803 2.312439 -0.814948
v 0.955803 2.990860 0.814128
v 0.955803 2.312439 0.814128
v 0.813786 2.312439 0.956145
v 0.813786 2.990860 0.956145
v -0.815290 2.312439 0.956145
v -0.957307 2.312439 0.814128
v -0.796968 1.206028 -0.959695
v -0.960037 1.206028 -0.796626
v -0.796968 -0.001507 -0.959695
v 0.795464 1.206028 -0.959695
v 0.795464 -0.001507 -0.959695
v 0.958533 -0.001507 -0.796625
v 0.958533 -0.001507 0.795806
v 0.958533 1.206028 -0.796626
v 0.958533 1.206028 0.795805
v 0.795464 -0.001507 0.958875
v 0.795464 1.206028 0.958875
v -0.796968 -0.001507 0.958875
v -0.796968 1.206028 0.958875
v -0.960037 -0.001507 0.795806
v -0.960037 1.206028 0.795805
v -0.960037 -0.001507 -0.796625
v 0.132080 1.630698 1.559215
v 0.132080 2.016675 1.559215
v 0.488452 2.016675 1.559215
v 0.488452 1.630698 1.559215
v 1.557447 1.273644 -0.567888
v 1.557447 1.749442 -0.567888
v 1.557447 1.749442 -1.043686
v 1.557447 1.273644 -1.043686
v 0.136542 3.159049 0.069582
v 0.575442 3.159049 0.069582
v 0.575442 3.159049 0.508482
v 0.136542 3.159049 0.508482
v -0.448784 3.159049 -0.443174
v -0.111337 3.159049 -0.443174
v -0.111337 3.159049 -0.105727
v -0.448784 3.159049 -0.105727
v -0.545764 1.265646 -1.559215
v -0.545764 1.741444 -1.559215
v -1.021562 1.741444 -1.559215
v -1.021562 1.265646 -1.559215
v -1.557447 1.266127 0.586573
v -1.557447 1.741925 0.586573
v -1.557447 1.741926 1.062372
v -1.557447 1.266127 1.062372
v -1.553962 1.642723 -0.675589
v -1.553962 1.976173 -0.675589
v -1.550921 1.976173 -0.342153
v -1.550921 1.642723 -0.342153
vn 1.0000 -0.0000 -0.0000
vn -0.3831 -0.9126 0.1425
vn -0.3831 -0.9128 -0.1415
vn -0.1019 -0.9148 -0.3908
vn -0.1026 -0.9145 0.3915
vn 0.1019 -0.9146 0.3914
vn 0.1025 -0.9147 -0.3908
vn 0.3829 -0.9128 -0.1422
vn 0.3830 -0.9128 0.1417
vn -0.8215 0.4007 -0.4057
vn -0.8214 0.4009 0.4057
vn -0.5852 0.7811 0.2179
vn -0.5853 0.7809 -0.2184
vn -0.1638 0.7647 -0.6232
vn -0.3230 0.4021 -0.8567
vn 0.3229 0.4025 -0.8565
vn 0.1615 0.7656 -0.6227
vn 0.5809 0.7845 -0.2168
vn 0.8213 0.4020 -0.4048
vn 0.8212 0.4022 0.4048
vn 0.5808 0.7847 0.2164
vn 0.3229 -0.4030 -0.8563
vn 0.8211 -0.4014 -0.4057
vn -0.3227 -0.4025 -0.8567
vn -0.8215 -0.4009 -0.4056
vn 0.8215 -0.4008 0.4055
vn 0.3228 0.4030 0.8564
vn 0.1614 0.7665 0.6216
vn 0.3228 -0.4022 0.8568
vn -0.3229 0.4026 0.8566
vn -0.1637 0.7656 0.6221
vn -0.3231 -0.4026 0.8565
vn -0.8213 -0.4011 0.4057
vn -0.0000 1.0000 -0.0000
vn -0.9239 -0.0000 -0.3827
vn -0.8385 0.4044 -0.3652
vn -0.3653 0.4041 -0.8386
vn -0.3827 -0.0000 -0.9239
vn 0.3827 -0.0000 -0.9239
vn 0.3655 0.4047 -0.8382
vn -0.1860 0.7758 -0.6030
vn -0.6043 0.7754 -0.1832
vn 0.1863 0.7757 -0.6030
vn -0.6045 0.7750 0.1845
vn 0.6030 0.7763 -0.1838
vn -0.8384 0.4044 0.3653
vn -0.3657 0.4039 0.8385
vn -0.1869 0.7744 0.6045
vn 0.1856 0.7748 0.6043
vn 0.8381 0.4053 -0.3652
vn 0.6030 0.7763 0.1835
vn 0.9239 -0.0000 -0.3827
vn 0.8385 0.4046 0.3650
vn 0.9239 -0.0000 0.3827
vn 0.3827 -0.0000 0.9239
vn 0.3656 0.4038 0.8386
vn -0.3827 -0.0000 0.9239
vn -0.9239 -0.0000 0.3827
vn -0.0000 -0.0000 1.0000
vn -0.0000 -0.0000 -1.0000
vn -1.0000 -0.0000 -0.0000
vn -1.0000 -0.0000 0.0091
vt 0.583500 0.833500
vt 0.583250 0.833500
vt 0.583250 0.833000
vt 0.666500 0.666500
vt 0.666750 0.666500
vt 0.666750 0.667000
vt 0.083500 0.833500
vt 0.083250 0.833500
vt 0.083250 0.833000
vt 0.166500 0.666500
vt 0.166750 0.666500
vt 0.166750 0.667000
vt 0.124875 0.749750
vt 0.125125 0.749750
vt 0.125125 0.750250
vt 0.124875 0.750250
vt 0.333500 0.833500
vt 0.333250 0.833500
vt 0.333250 0.833000
vt 0.416500 0.666500
vt 0.416750 0.666500
vt 0.416750 0.667000
vt 0.334000 0.333500
vt 0.333000 0.333500
vt 0.333000 0.333000
vt 0.666000 0.166500
vt 0.667000 0.166500
vt 0.667000 0.167000
vt 0.833500 0.833500
vt 0.833250 0.833500
vt 0.833250 0.833000
vt 0.916500 0.666500
vt 0.916750 0.666500
vt 0.916750 0.667000
s 1
usemtl pvpd_PoisonShroom_02
f 3/1/1 2/2/1 1/3/1
f 4/4/1 3/5/1 1/6/1
f 6/7/2 5/8/3 18/9/4
f 7/10/5 6/11/2 18/12/4
f 8/7/6 7/8/5 18/9/4
f 16/10/7 8/11/6 18/12/4
f 8/7/6 16/8/7 9/9/8
f 10/10/9 8/11/6 9/12/8
f 28/7/10 26/8/11 30/9/12
f 31/10/13 28/11/10 30/12/12
f 28/7/10 31/8/13 11/9/14
f 12/10/15 28/11/10 11/12/14
f 13/7/16 12/8/15 11/9/14
f 32/10/17 13/11/16 11/12/14
f 13/7/16 32/8/17 35/9/18
f 20/10/19 13/11/16 35/12/18
f 21/7/20 20/8/19 35/9/18
f 34/10/21 21/11/20 35/12/18
f 13/7/16 14/8/22 12/9/15
f 14/10/22 13/11/16 20/12/19
f 15/7/23 14/8/22 20/9/19
f 16/10/7 14/11/22 15/12/23
f 9/7/8 16/8/7 15/9/23
f 14/10/22 16/11/7 17/12/24
f 14/7/22 17/8/24 12/9/15
f 16/10/7 18/11/4 17/12/24
f 18/7/4 5/8/3 17/9/24
f 5/10/3 27/11/25 17/12/24
f 17/7/24 27/8/25 12/9/15
f 27/10/25 28/11/10 12/12/15
f 15/7/23 20/8/19 19/9/26
f 20/10/19 21/11/20 19/12/26
f 21/7/20 22/8/27 19/9/26
f 21/10/20 34/11/21 22/12/27
f 34/7/21 33/8/28 22/9/27
f 22/10/27 23/11/29 19/12/26
f 19/7/26 23/8/29 10/9/9
f 23/10/29 8/11/6 10/12/9
f 7/7/5 8/8/6 23/9/29
f 24/10/30 22/11/27 33/12/28
f 29/7/31 24/8/30 33/9/28
f 23/13/29 22/14/27 25/15/32
f 25/15/32 7/16/5 23/13/29
f 22/10/27 24/11/30 25/12/32
f 24/7/30 29/8/31 26/9/11
f 24/10/30 26/11/11 25/12/32
f 29/7/31 30/8/12 26/9/11
f 25/10/32 36/11/33 7/12/5
f 26/7/11 36/8/33 25/9/32
f 36/10/33 6/11/2 7/12/5
f 36/7/33 26/8/11 27/9/25
f 26/10/11 28/11/10 27/12/25
f 31/17/34 30/18/34 29/19/34
f 11/20/34 31/21/34 29/22/34
f 11/17/34 29/18/34 32/19/34
f 29/20/34 33/21/34 32/22/34
f 32/17/34 33/18/34 34/19/34
f 35/20/34 32/21/34 34/22/34
f 5/7/3 6/8/2 36/9/33
f 27/10/25 5/11/3 36/12/33
f 10/7/9 9/8/8 15/9/23
f 19/10/26 10/11/9 15/12/23
f 39/17/34 38/18/34 37/19/34
f 40/20/34 39/21/34 37/22/34
f 40/17/34 37/18/34 41/19/34
f 37/20/34 42/21/34 41/22/34
f 41/17/34 42/18/34 53/19/34
f 49/20/34 41/21/34 53/22/34
f 45/7/35 44/8/36 43/9/37
f 46/10/38 45/11/35 43/12/37
f 47/7/39 46/8/38 43/9/37
f 48/13/40 47/14/39 43/15/37
f 43/15/37 40/16/41 48/13/40
f 43/10/37 44/11/36 40/12/41
f 44/7/36 39/8/42 40/9/41
f 40/10/41 41/11/43 48/12/40
f 38/7/44 39/8/42 44/9/36
f 48/10/40 41/11/43 49/12/45
f 50/7/46 38/8/44 44/9/36
f 38/10/44 50/11/46 51/12/47
f 37/7/48 38/8/44 51/9/47
f 42/10/49 37/11/48 51/12/47
f 52/7/50 48/8/40 49/9/45
f 47/10/39 48/11/40 52/12/50
f 52/7/50 49/8/45 53/9/51
f 54/10/52 47/11/39 52/12/50
f 55/7/53 52/8/50 53/9/51
f 54/10/52 52/11/50 55/12/53
f 53/7/51 42/8/49 55/9/53
f 56/10/54 54/11/52 55/12/53
f 56/7/54 55/8/53 57/9/55
f 42/10/49 58/11/56 55/12/53
f 55/7/53 58/8/56 57/9/55
f 58/10/56 42/11/49 51/12/47
f 57/7/55 58/8/56 51/9/47
f 59/10/57 57/11/55 51/12/47
f 59/7/57 51/8/47 60/9/58
f 51/10/47 50/11/46 60/12/58
f 60/7/58 50/8/46 44/9/36
f 45/10/35 60/11/58 44/12/36
f 62/23/35 61/24/38 76/25/35
f 61/26/38 63/27/38 76/28/35
f 61/23/38 64/24/39 63/25/38
f 64/26/39 65/27/39 63/28/38
f 64/23/39 68/24/52 65/25/39
f 68/26/52 66/27/52 65/28/39
f 66/23/52 68/24/52 67/25/54
f 68/26/52 69/27/54 67/28/54
f 70/23/55 67/24/54 69/25/54
f 71/26/55 70/27/55 69/28/54
f 70/23/55 71/24/55 72/25/57
f 71/26/55 73/27/57 72/28/57
f 74/23/58 72/24/57 73/25/57
f 75/26/58 74/27/58 73/28/57
f 74/23/58 75/24/58 76/25/35
f 75/26/58 62/27/35 76/28/35
f 79/1/59 78/2/59 77/3/59
f 80/4/59 79/5/59 77/6/59
f 83/1/1 82/2/1 81/3/1
f 84/4/1 83/5/1 81/6/1
f 87/29/34 86/30/34 85/31/34
f 88/32/34 87/33/34 85/34/34
f 91/29/34 90/30/34 89/31/34
f 92/32/34 91/33/34 89/34/34
f 95/1/60 94/2/60 93/3/60
f 96/4/60 95/5/60 93/6/60
f 99/1/61 98/2/61 97/3/61
f 100/4/61 99/5/61 97/6/61
f 103/1/62 102/2/62 101/3/62
f 104/4/62 103/5/62 101/6/62
