# Blender 4.2.0
# www.blender.org
mtllib Stage Point Normal.mtl
o point_stage_normal
v -130.974533 -0.250000 128.759689
v -131.240311 -0.250000 129.025467
v -131.155746 -0.250000 128.844254
v -130.000000 -0.250000 130.000000
v -129.025467 -0.250000 128.759689
v -131.240311 -0.250000 130.974533
v -128.759689 -0.250000 129.025467
v -128.844254 -0.250000 128.844254
v -128.759689 -0.250000 130.974533
v -130.974533 -0.250000 131.240311
v -131.155746 -0.250000 131.155746
v -129.025467 -0.250000 131.240311
v -128.844254 -0.250000 131.155746
v -128.250000 -0.250000 131.375000
v -128.299500 -0.250000 131.572372
v -128.420135 -0.250000 131.701385
v -128.625000 -0.250000 131.750000
v -128.844254 -0.250000 131.155746
v -128.759689 -0.250000 130.974533
v -129.025467 -0.250000 131.240311
v -130.974533 -0.250000 131.240311
v -128.250000 -0.250000 128.625000
v -131.375000 -0.250000 131.750000
v -128.759689 -0.250000 129.025467
v -128.844254 -0.250000 128.844254
v -131.155746 -0.250000 131.155746
v -128.625000 -0.250000 128.250000
v -128.299500 -0.250000 128.427628
v -128.420135 -0.250000 128.298615
v -129.025467 -0.250000 128.759689
v -130.974533 -0.250000 128.759689
v -131.375000 -0.250000 128.250000
v -131.155746 -0.250000 128.844254
v -131.750000 -0.250000 128.625000
v -131.579865 -0.250000 128.298615
v -131.700500 -0.250000 128.427628
v -131.240311 -0.250000 129.025467
v -131.750000 -0.250000 131.375000
v -131.240311 -0.250000 130.974533
v -131.700500 -0.250000 131.572372
v -131.579865 -0.250000 131.701385
v -131.700500 -0.250000 131.572372
v -132.009445 -0.250000 131.247955
v -132.062393 -0.250000 131.036850
v -131.750000 -0.250000 131.375000
v -131.750000 -0.250000 128.625000
v -132.062393 -0.250000 128.332581
v -132.009445 -0.250000 128.121475
v -131.700500 -0.250000 128.427628
v -131.750000 -0.250000 131.375000
v -132.062393 -0.250000 131.036850
v -132.062393 -0.250000 128.332581
v -131.750000 -0.250000 128.625000
v -131.375000 -0.250000 128.250000
v -131.661316 -0.250000 127.931511
v -128.947891 -0.250000 127.931511
v -128.625000 -0.250000 128.250000
v -128.625000 -0.250000 128.250000
v -128.947891 -0.250000 127.931511
v -128.743668 -0.250000 127.983498
v -128.420135 -0.250000 128.298615
v -131.579865 -0.250000 128.298615
v -131.880417 -0.250000 127.983498
v -131.661316 -0.250000 127.931511
v -131.375000 -0.250000 128.250000
v -131.700500 -0.250000 128.427628
v -132.009445 -0.250000 128.121475
v -131.880417 -0.250000 127.983498
v -131.579865 -0.250000 128.298615
vn -0.0000 1.0000 -0.0000
vt 0.333249 0.666625
vt 0.333374 0.666625
vt 0.333374 0.666750
vt 0.291750 0.708375
vt 0.291625 0.708375
vt 0.291625 0.708250
vt 0.291750 0.708375
vt 0.291625 0.708375
vt 0.291625 0.708250
vt 0.208249 0.791625
vt 0.208374 0.791625
vt 0.208374 0.791750
vt 0.166750 0.833375
vt 0.166625 0.833375
vt 0.166625 0.833250
vt 0.166750 0.833375
vt 0.166625 0.833375
vt 0.166625 0.833250
vt 0.083249 0.916625
vt 0.083374 0.916625
vt 0.083374 0.916750
vt 0.041750 0.958375
vt 0.041625 0.958375
vt 0.041625 0.958250
vt 0.083249 0.916625
vt 0.083374 0.916625
vt 0.083374 0.916750
s 1
usemtl point_stage_normal
f 3/1/1 2/2/1 1/3/1
f 2/4/1 4/5/1 1/6/1
f 1/1/1 4/2/1 5/3/1
f 6/7/1 4/8/1 2/9/1
f 5/1/1 4/2/1 7/3/1
f 8/1/1 5/2/1 7/3/1
f 7/7/1 4/8/1 9/9/1
f 10/1/1 4/2/1 6/3/1
f 11/7/1 10/8/1 6/9/1
f 12/1/1 4/2/1 10/3/1
f 9/1/1 4/2/1 12/3/1
f 13/7/1 9/8/1 12/9/1
f 16/10/1 15/11/1 14/12/1
f 17/13/1 16/14/1 14/15/1
f 18/10/1 17/11/1 14/12/1
f 19/16/1 18/17/1 14/18/1
f 18/10/1 20/11/1 17/12/1
f 20/10/1 21/11/1 17/12/1
f 19/16/1 14/17/1 22/18/1
f 21/10/1 23/11/1 17/12/1
f 24/16/1 19/17/1 22/18/1
f 25/10/1 24/11/1 22/12/1
f 21/10/1 26/11/1 23/12/1
f 25/16/1 22/17/1 27/18/1
f 22/10/1 28/11/1 27/12/1
f 28/16/1 29/17/1 27/18/1
f 30/10/1 25/11/1 27/12/1
f 31/10/1 30/11/1 27/12/1
f 32/16/1 31/17/1 27/18/1
f 33/10/1 31/11/1 32/12/1
f 33/16/1 32/17/1 34/18/1
f 32/10/1 35/11/1 34/12/1
f 35/10/1 36/11/1 34/12/1
f 37/16/1 33/17/1 34/18/1
f 37/10/1 34/11/1 38/12/1
f 39/16/1 37/17/1 38/18/1
f 26/10/1 39/11/1 38/12/1
f 26/10/1 38/11/1 23/12/1
f 38/16/1 40/17/1 23/18/1
f 40/10/1 41/11/1 23/12/1
f 44/19/1 43/20/1 42/21/1
f 45/22/1 44/23/1 42/24/1
f 48/25/1 47/26/1 46/27/1
f 49/22/1 48/23/1 46/24/1
f 52/25/1 51/26/1 50/27/1
f 53/25/1 52/26/1 50/27/1
f 56/22/1 55/23/1 54/24/1
f 57/25/1 56/26/1 54/27/1
f 60/22/1 59/23/1 58/24/1
f 61/25/1 60/26/1 58/27/1
f 64/25/1 63/26/1 62/27/1
f 65/22/1 64/23/1 62/24/1
f 68/25/1 67/26/1 66/27/1
f 69/22/1 68/23/1 66/24/1
