# Blender 4.2.0
# www.blender.org
mtllib Stage Point Lock.mtl
o point_stage_lock
v 0.728573 -0.000000 -0.018287
v 1.240311 0.000000 0.974530
v 0.724193 -0.000000 0.046158
v 0.082355 -0.000000 -0.509161
v 0.066148 -0.000000 -0.524056
v 0.501977 -0.000000 -0.737070
v 1.750000 0.000000 1.375000
v 1.700500 0.000000 1.572377
v 1.579861 0.000000 1.701389
v 1.375000 0.000000 1.750000
v 1.155740 0.000000 1.155740
v 1.240311 0.000000 0.974530
v 0.974530 0.000000 1.240311
v -0.974530 0.000000 1.240311
v 1.750000 -0.000000 -1.375000
v -1.375000 0.000000 1.750000
v 1.240311 -0.000000 -0.974530
v 1.155740 -0.000000 -1.155740
v -1.155740 0.000000 1.155740
v 1.375000 -0.000000 -1.750000
v 1.700500 -0.000000 -1.572377
v 1.579861 -0.000000 -1.701389
v 0.974530 -0.000000 -1.240311
v -0.974530 -0.000000 -1.240311
v -1.375000 -0.000000 -1.750000
v -1.155740 -0.000000 -1.155740
v -1.750000 -0.000000 -1.375000
v -1.579861 -0.000000 -1.701389
v -1.700500 -0.000000 -1.572377
v -1.240311 -0.000000 -0.974530
v -1.750000 0.000000 1.375000
v -1.240311 0.000000 0.974530
v -1.700500 0.000000 1.572377
v -1.579861 0.000000 1.701389
v -1.700500 0.000000 1.572377
v -2.009447 0.000000 1.247950
v -2.062388 0.000000 1.036853
v -1.750000 0.000000 1.375000
v -1.750000 -0.000000 -1.375000
v -2.062388 -0.000000 -1.667424
v -2.009447 -0.000000 -1.878521
v -1.700500 -0.000000 -1.572377
v -1.750000 0.000000 1.375000
v -2.062388 0.000000 1.036853
v -2.062388 -0.000000 -1.667424
v -1.750000 -0.000000 -1.375000
v -1.375000 -0.000000 -1.750000
v -1.661321 -0.000000 -2.068492
v 1.052107 -0.000000 -2.068492
v 1.375000 -0.000000 -1.750000
v 1.375000 -0.000000 -1.750000
v 1.052107 -0.000000 -2.068492
v 1.256328 -0.000000 -2.016501
v 1.579861 -0.000000 -1.701389
v -1.579861 -0.000000 -1.701389
v -1.880422 -0.000000 -2.016501
v -1.661321 -0.000000 -2.068492
v -1.375000 -0.000000 -1.750000
v -1.700500 -0.000000 -1.572377
v -2.009447 -0.000000 -1.878521
v -1.880422 -0.000000 -2.016501
v -1.579861 -0.000000 -1.701389
v 1.240311 0.000000 0.974530
v 0.728573 -0.000000 -0.018287
v 0.728574 -0.000000 -0.508788
v 1.240311 -0.000000 -0.974530
v 0.725115 -0.000000 -0.573396
v 0.709034 -0.000000 -0.631695
v 1.155740 -0.000000 -1.155740
v 0.664714 -0.000000 -0.688942
v 0.974530 -0.000000 -1.240311
v 0.611518 -0.000000 -0.721810
v 0.549478 -0.000000 -0.733347
v 0.501977 -0.000000 -0.737070
v -0.501977 -0.000000 -0.737070
v -0.974530 -0.000000 -1.240311
v -0.549478 -0.000000 -0.733347
v -0.611518 -0.000000 -0.721810
v -1.155740 -0.000000 -1.155740
v -0.664714 -0.000000 -0.688942
v -0.709034 -0.000000 -0.631695
v -1.240311 -0.000000 -0.974530
v -0.725115 -0.000000 -0.573396
v -0.728574 -0.000000 -0.508788
v -0.728573 -0.000000 -0.018287
v -1.240311 0.000000 0.974530
v -0.724193 -0.000000 0.046158
v -0.710164 -0.000000 0.108029
v -1.155740 0.000000 1.155740
v -0.679126 -0.000000 0.153380
v -0.631161 -0.000000 0.195813
v -0.974530 0.000000 1.240311
v -0.556626 0.000000 0.217128
v -0.501977 0.000000 0.223456
v -0.501977 0.000000 0.572864
v -0.496219 0.000000 0.615740
v -0.482570 0.000000 0.656609
v -0.455164 0.000000 0.695665
v -0.417886 0.000000 0.722156
v -0.372303 0.000000 0.735004
v -0.319777 0.000000 0.738662
v 0.319777 0.000000 0.738662
v 0.974530 0.000000 1.240311
v 0.372303 0.000000 0.735004
v 0.417886 0.000000 0.722156
v 0.455164 0.000000 0.695665
v 0.482570 0.000000 0.656609
v 0.496219 0.000000 0.615740
v 0.501977 0.000000 0.570975
v 0.501977 0.000000 0.223456
v 0.556626 0.000000 0.217128
v 1.155740 0.000000 1.155740
v 0.631161 -0.000000 0.195813
v 0.679126 -0.000000 0.153380
v 0.710164 -0.000000 0.108029
v 0.724193 -0.000000 0.046158
v -0.501977 -0.000000 -0.737070
v -0.028547 -0.000000 -0.539447
v -0.050022 -0.000000 -0.533888
v 0.501977 -0.000000 -0.737070
v 0.024139 -0.000000 -0.539447
v 0.045614 -0.000000 -0.533888
v 0.066148 -0.000000 -0.524056
v -0.086763 -0.000000 -0.509161
v -0.094874 -0.000000 -0.490239
v -0.549478 -0.000000 -0.733347
v -0.097037 -0.000000 -0.467315
v -0.152943 -0.000000 -0.269373
v -0.097037 -0.000000 -0.269373
v -0.611518 -0.000000 -0.721810
v -0.196743 -0.000000 -0.261777
v -0.664714 -0.000000 -0.688942
v -0.222096 -0.000000 -0.247365
v -0.709034 -0.000000 -0.631695
v -0.239111 -0.000000 -0.225588
v -0.725115 -0.000000 -0.573396
v -0.247420 -0.000000 -0.190243
v -0.728574 -0.000000 -0.508788
v -0.247420 -0.000000 -0.090782
v -0.728573 -0.000000 -0.018287
v -0.724193 -0.000000 0.046158
v -0.710164 -0.000000 0.108029
v -0.679126 -0.000000 0.153380
v -0.222096 -0.000000 -0.035596
v -0.631161 -0.000000 0.195813
v -0.196743 -0.000000 -0.022034
v -0.556626 0.000000 0.217128
v -0.158097 -0.000000 -0.014185
v -0.501977 0.000000 0.223456
v -0.298459 0.000000 0.223456
v 0.158097 -0.000000 -0.014185
v -0.298459 0.000000 0.554133
v -0.501977 0.000000 0.572864
v -0.496219 0.000000 0.615740
v -0.482570 0.000000 0.656609
v -0.455164 0.000000 0.695665
v -0.417886 0.000000 0.722156
v -0.372303 0.000000 0.735004
v -0.319777 0.000000 0.738662
v 0.319777 0.000000 0.738662
v 0.298459 0.000000 0.554133
v 0.372303 0.000000 0.735004
v 0.417886 0.000000 0.722156
v 0.455164 0.000000 0.695665
v 0.482570 0.000000 0.656609
v 0.496219 0.000000 0.615740
v 0.501977 0.000000 0.570975
v 0.501977 0.000000 0.223456
v 0.298459 0.000000 0.223456
v 0.556626 0.000000 0.217128
v 0.631161 -0.000000 0.195813
v 0.196743 -0.000000 -0.022034
v 0.679126 -0.000000 0.153380
v 0.222096 -0.000000 -0.035596
v 0.710164 -0.000000 0.108029
v 0.239111 -0.000000 -0.060218
v 0.724193 -0.000000 0.046158
v 0.247420 -0.000000 -0.090782
v 0.728573 -0.000000 -0.018287
v 0.247420 -0.000000 -0.190243
v 0.728574 -0.000000 -0.508788
v 0.725115 -0.000000 -0.573396
v 0.709034 -0.000000 -0.631695
v 0.239111 -0.000000 -0.225588
v 0.664714 -0.000000 -0.688942
v 0.222096 -0.000000 -0.247365
v 0.611518 -0.000000 -0.721810
v 0.196743 -0.000000 -0.261777
v 0.549478 -0.000000 -0.733347
v 0.158097 -0.000000 -0.269373
v 0.092630 -0.000000 -0.467315
v 0.092630 -0.000000 -0.269373
v 0.090467 -0.000000 -0.490239
v 0.082355 -0.000000 -0.509161
v -0.298459 0.000000 0.554133
v -0.298459 0.000000 0.223456
v 0.298459 0.000000 0.223456
v 0.298459 0.000000 0.554133
v 0.024139 -0.000000 -0.539447
v -0.050022 -0.000000 -0.533888
v -0.028547 -0.000000 -0.539447
v 0.045614 -0.000000 -0.533888
v -0.070556 -0.000000 -0.524056
v 0.066148 -0.000000 -0.524056
v -0.086763 -0.000000 -0.509161
v 0.082355 -0.000000 -0.509161
v -0.094874 -0.000000 -0.490239
v 0.090467 -0.000000 -0.490239
v -0.097037 -0.000000 -0.467315
v 0.092630 -0.000000 -0.467315
v -0.097037 -0.000000 -0.269373
v 0.092630 -0.000000 -0.269373
v 0.000000 -0.000000 -0.127368
v 0.158097 -0.000000 -0.269373
v -0.152943 -0.000000 -0.269373
v 0.196743 -0.000000 -0.261777
v -0.196743 -0.000000 -0.261777
v 0.222096 -0.000000 -0.247365
v -0.222096 -0.000000 -0.247365
v 0.239111 -0.000000 -0.225588
v -0.239111 -0.000000 -0.225588
v 0.247420 -0.000000 -0.190243
v -0.247420 -0.000000 -0.190243
v 0.247420 -0.000000 -0.090782
v -0.247420 -0.000000 -0.090782
v 0.239111 -0.000000 -0.060218
v -0.222096 -0.000000 -0.035596
v 0.222096 -0.000000 -0.035596
v -0.196743 -0.000000 -0.022034
v 0.196743 -0.000000 -0.022034
v -0.158097 -0.000000 -0.014185
v 0.158097 -0.000000 -0.014185
v -0.501977 -0.000000 -0.737070
v -0.050022 -0.000000 -0.533888
v -0.070556 -0.000000 -0.524056
v -0.086763 -0.000000 -0.509161
vn -0.0000 1.0000 -0.0000
vt 0.291750 0.708375
vt 0.291625 0.708375
vt 0.291625 0.708250
vt 0.166750 0.833375
vt 0.166625 0.833375
vt 0.166625 0.833250
vt 0.208249 0.791625
vt 0.208374 0.791625
vt 0.208374 0.791750
vt 0.041750 0.958375
vt 0.041625 0.958375
vt 0.041625 0.958250
vt 0.083249 0.916625
vt 0.083374 0.916625
vt 0.083374 0.916750
vt 0.333249 0.666625
vt 0.333374 0.666625
vt 0.333374 0.666750
s 1
usemtl point_stage_lock
f 3/1/1 2/2/1 1/3/1
f 6/4/1 5/5/1 4/6/1
f 9/7/1 8/8/1 7/9/1
f 10/4/1 9/5/1 7/6/1
f 11/7/1 10/8/1 7/9/1
f 12/4/1 11/5/1 7/6/1
f 11/7/1 13/8/1 10/9/1
f 13/4/1 14/5/1 10/6/1
f 12/7/1 7/8/1 15/9/1
f 14/4/1 16/5/1 10/6/1
f 17/7/1 12/8/1 15/9/1
f 18/4/1 17/5/1 15/6/1
f 14/7/1 19/8/1 16/9/1
f 18/4/1 15/5/1 20/6/1
f 15/7/1 21/8/1 20/9/1
f 21/4/1 22/5/1 20/6/1
f 23/7/1 18/8/1 20/9/1
f 24/4/1 23/5/1 20/6/1
f 25/7/1 24/8/1 20/9/1
f 26/4/1 24/5/1 25/6/1
f 26/7/1 25/8/1 27/9/1
f 25/4/1 28/5/1 27/6/1
f 28/7/1 29/8/1 27/9/1
f 30/4/1 26/5/1 27/6/1
f 30/7/1 27/8/1 31/9/1
f 32/4/1 30/5/1 31/6/1
f 19/7/1 32/8/1 31/9/1
f 19/4/1 31/5/1 16/6/1
f 31/7/1 33/8/1 16/9/1
f 33/4/1 34/5/1 16/6/1
f 37/10/1 36/11/1 35/12/1
f 38/13/1 37/14/1 35/15/1
f 41/10/1 40/11/1 39/12/1
f 42/13/1 41/14/1 39/15/1
f 45/10/1 44/11/1 43/12/1
f 46/13/1 45/14/1 43/15/1
f 49/10/1 48/11/1 47/12/1
f 50/13/1 49/14/1 47/15/1
f 53/10/1 52/11/1 51/12/1
f 54/13/1 53/14/1 51/15/1
f 57/10/1 56/11/1 55/12/1
f 58/13/1 57/14/1 55/15/1
f 61/10/1 60/11/1 59/12/1
f 62/13/1 61/14/1 59/15/1
f 65/16/1 64/17/1 63/18/1
f 66/1/1 65/2/1 63/3/1
f 67/16/1 65/17/1 66/18/1
f 68/1/1 67/2/1 66/3/1
f 69/16/1 68/17/1 66/18/1
f 69/1/1 70/2/1 68/3/1
f 69/16/1 71/17/1 70/18/1
f 71/1/1 72/2/1 70/3/1
f 71/16/1 73/17/1 72/18/1
f 71/1/1 74/2/1 73/3/1
f 75/16/1 74/17/1 71/18/1
f 76/1/1 75/2/1 71/3/1
f 77/16/1 75/17/1 76/18/1
f 78/1/1 77/2/1 76/3/1
f 78/16/1 76/17/1 79/18/1
f 80/1/1 78/2/1 79/3/1
f 81/16/1 80/17/1 79/18/1
f 81/1/1 79/2/1 82/3/1
f 83/16/1 81/17/1 82/18/1
f 83/1/1 82/2/1 84/3/1
f 85/16/1 84/17/1 82/18/1
f 86/1/1 85/2/1 82/3/1
f 87/16/1 85/17/1 86/18/1
f 88/1/1 87/2/1 86/3/1
f 88/16/1 86/17/1 89/18/1
f 90/1/1 88/2/1 89/3/1
f 91/16/1 90/17/1 89/18/1
f 91/1/1 89/2/1 92/3/1
f 93/16/1 91/17/1 92/18/1
f 94/1/1 93/2/1 92/3/1
f 95/16/1 94/17/1 92/18/1
f 96/1/1 95/2/1 92/3/1
f 97/16/1 96/17/1 92/18/1
f 97/1/1 92/2/1 98/3/1
f 99/16/1 98/17/1 92/18/1
f 100/1/1 99/2/1 92/3/1
f 101/16/1 100/17/1 92/18/1
f 102/1/1 101/2/1 92/3/1
f 103/16/1 102/17/1 92/18/1
f 103/1/1 104/2/1 102/3/1
f 103/16/1 105/17/1 104/18/1
f 103/1/1 106/2/1 105/3/1
f 107/16/1 106/17/1 103/18/1
f 108/1/1 107/2/1 103/3/1
f 109/16/1 108/17/1 103/18/1
f 110/1/1 109/2/1 103/3/1
f 111/16/1 110/17/1 103/18/1
f 111/1/1 103/2/1 112/3/1
f 113/16/1 111/17/1 112/18/1
f 114/1/1 113/2/1 112/3/1
f 114/16/1 112/17/1 63/18/1
f 115/1/1 114/2/1 63/3/1
f 116/16/1 115/17/1 63/18/1
f 119/7/1 118/8/1 117/9/1
f 117/4/1 118/5/1 120/6/1
f 118/7/1 121/8/1 120/9/1
f 120/4/1 121/5/1 122/6/1
f 120/7/1 122/8/1 123/9/1
f 125/4/1 124/5/1 117/6/1
f 126/7/1 125/8/1 117/9/1
f 126/4/1 127/5/1 125/6/1
f 126/7/1 128/8/1 127/9/1
f 128/4/1 129/5/1 127/6/1
f 126/7/1 130/8/1 128/9/1
f 130/4/1 131/5/1 128/6/1
f 131/7/1 130/8/1 132/9/1
f 133/4/1 131/5/1 132/6/1
f 133/7/1 132/8/1 134/9/1
f 135/4/1 133/5/1 134/6/1
f 135/7/1 134/8/1 136/9/1
f 135/4/1 136/5/1 137/6/1
f 136/7/1 138/8/1 137/9/1
f 139/4/1 137/5/1 138/6/1
f 140/7/1 139/8/1 138/9/1
f 140/4/1 141/5/1 139/6/1
f 141/7/1 142/8/1 139/9/1
f 142/4/1 143/5/1 139/6/1
f 143/7/1 144/8/1 139/9/1
f 143/4/1 145/5/1 144/6/1
f 145/7/1 146/8/1 144/9/1
f 145/4/1 147/5/1 146/6/1
f 147/7/1 148/8/1 146/9/1
f 147/4/1 149/5/1 148/6/1
f 149/7/1 150/8/1 148/9/1
f 151/4/1 148/5/1 150/6/1
f 150/7/1 149/8/1 152/9/1
f 149/4/1 153/5/1 152/6/1
f 153/7/1 154/8/1 152/9/1
f 154/4/1 155/5/1 152/6/1
f 155/7/1 156/8/1 152/9/1
f 157/4/1 152/5/1 156/6/1
f 157/7/1 158/8/1 152/9/1
f 158/4/1 159/5/1 152/6/1
f 159/7/1 160/8/1 152/9/1
f 160/4/1 161/5/1 152/6/1
f 160/7/1 162/8/1 161/9/1
f 162/4/1 163/5/1 161/6/1
f 163/7/1 164/8/1 161/9/1
f 161/4/1 164/5/1 165/6/1
f 161/7/1 165/8/1 166/9/1
f 161/4/1 166/5/1 167/6/1
f 161/7/1 167/8/1 168/9/1
f 169/4/1 161/5/1 168/6/1
f 151/7/1 169/8/1 168/9/1
f 169/4/1 151/5/1 150/6/1
f 151/7/1 168/8/1 170/9/1
f 151/4/1 170/5/1 171/6/1
f 172/7/1 151/8/1 171/9/1
f 172/4/1 171/5/1 173/6/1
f 174/7/1 172/8/1 173/9/1
f 174/4/1 173/5/1 175/6/1
f 176/7/1 174/8/1 175/9/1
f 176/4/1 175/5/1 177/6/1
f 178/7/1 176/8/1 177/9/1
f 178/4/1 177/5/1 179/6/1
f 180/7/1 178/8/1 179/9/1
f 181/4/1 180/5/1 179/6/1
f 182/7/1 180/8/1 181/9/1
f 182/4/1 183/5/1 180/6/1
f 183/7/1 184/8/1 180/9/1
f 183/4/1 185/5/1 184/6/1
f 185/7/1 186/8/1 184/9/1
f 185/4/1 187/5/1 186/6/1
f 187/7/1 188/8/1 186/9/1
f 187/4/1 189/5/1 188/6/1
f 189/7/1 190/8/1 188/9/1
f 189/4/1 191/5/1 190/6/1
f 191/7/1 192/8/1 190/9/1
f 189/4/1 193/5/1 191/6/1
f 189/7/1 120/8/1 193/9/1
f 120/4/1 194/5/1 193/6/1
f 197/1/1 196/2/1 195/3/1
f 198/16/1 197/17/1 195/18/1
f 201/1/1 200/2/1 199/3/1
f 200/16/1 202/17/1 199/18/1
f 200/1/1 203/2/1 202/3/1
f 203/16/1 204/17/1 202/18/1
f 203/1/1 205/2/1 204/3/1
f 205/16/1 206/17/1 204/18/1
f 205/1/1 207/2/1 206/3/1
f 207/16/1 208/17/1 206/18/1
f 207/1/1 209/2/1 208/3/1
f 209/16/1 210/17/1 208/18/1
f 209/1/1 211/2/1 210/3/1
f 211/16/1 212/17/1 210/18/1
f 211/1/1 213/2/1 212/3/1
f 214/16/1 212/17/1 213/18/1
f 215/1/1 213/2/1 211/3/1
f 216/16/1 214/17/1 213/18/1
f 215/1/1 217/2/1 213/3/1
f 218/16/1 216/17/1 213/18/1
f 217/1/1 219/2/1 213/3/1
f 220/16/1 218/17/1 213/18/1
f 219/1/1 221/2/1 213/3/1
f 220/16/1 213/17/1 222/18/1
f 221/1/1 223/2/1 213/3/1
f 224/16/1 222/17/1 213/18/1
f 213/1/1 223/2/1 225/3/1
f 226/16/1 224/17/1 213/18/1
f 213/1/1 225/2/1 227/3/1
f 228/16/1 226/17/1 213/18/1
f 213/1/1 227/2/1 229/3/1
f 230/16/1 228/17/1 213/18/1
f 213/1/1 229/2/1 231/3/1
f 232/16/1 230/17/1 213/18/1
f 232/1/1 213/2/1 231/3/1
f 235/7/1 234/8/1 233/9/1
f 236/4/1 235/5/1 233/6/1
