# Blender 3.6.1
# www.blender.org
mtllib cgMulliganStew.mtl
o cgMulliganStew
v 1.227172 -0.000000 -1.431701
v -1.364875 -0.000000 -1.364875
v -1.227172 -0.000000 -1.431701
v 1.364875 -0.000000 -1.364875
v -1.431701 -0.000000 -1.227172
v 1.431701 -0.000000 -1.227172
v -1.431701 0.000000 1.227172
v 1.431701 0.000000 1.227172
v -1.364875 0.000000 1.364875
v 1.364875 0.000000 1.364875
v -1.227172 0.000000 1.431701
v 1.227172 0.000000 1.431701
v 1.500000 -0.000000 -1.750000
v 1.227172 -0.000000 -1.431701
v -1.227172 -0.000000 -1.431701
v 1.364875 -0.000000 -1.364875
v -1.500000 -0.000000 -1.750000
v 1.670563 -0.000000 -1.670563
v 1.750000 -0.000000 -1.500000
v 1.431701 -0.000000 -1.227172
v -1.364875 -0.000000 -1.364875
v -1.670563 -0.000000 -1.670563
v 1.750000 0.000000 1.500000
v 1.431701 0.000000 1.227172
v -1.750000 -0.000000 -1.500000
v -1.431701 -0.000000 -1.227172
v -1.431701 0.000000 1.227172
v -1.750000 0.000000 1.500000
v 1.364875 0.000000 1.364875
v 1.670563 0.000000 1.670563
v 1.500000 0.000000 1.750000
v 1.227172 0.000000 1.431701
v -1.364875 0.000000 1.364875
v -1.670563 0.000000 1.670563
v -1.500000 0.000000 1.750000
v -1.227172 0.000000 1.431701
v -0.988186 0.032982 0.045733
v -0.988186 0.032982 -0.318625
v -0.930893 0.032982 -0.375643
v -0.930893 0.032982 0.102751
v -0.564793 0.032982 0.102751
v -0.564793 0.032982 -0.375643
v -0.509792 0.032982 0.045733
v -0.509792 0.032982 -0.318625
v -0.024288 0.032982 0.884472
v -0.024288 0.032982 0.629007
v 0.029924 0.032982 0.582393
v 0.029924 0.032982 0.931086
v 0.272348 0.032982 0.931086
v 0.272348 0.032982 0.582393
v 0.324405 0.032982 0.884472
v 0.324405 0.032982 0.629007
v 0.463167 0.032982 -0.441488
v 0.463167 0.032982 -0.702950
v 0.514638 0.032982 -0.746566
v 0.514638 0.032982 -0.397872
v 0.761553 0.032982 -0.397872
v 0.761553 0.032982 -0.746566
v 0.811861 0.032982 -0.441488
v 0.811861 0.032982 -0.702950
v -0.632262 0.032982 -0.607814
v -0.632262 0.032982 -0.785239
v -0.594611 0.032982 -0.817614
v -0.594611 0.032982 -0.575439
v -0.426243 0.032982 -0.575439
v -0.426243 0.032982 -0.817614
v -0.390088 0.032982 -0.607814
v -0.390088 0.032982 -0.785239
v 0.498343 0.032982 0.618066
v 0.498343 0.032982 0.419220
v 0.529610 0.032982 0.388102
v 0.529610 0.032982 0.649183
v 0.729407 0.032982 0.649183
v 0.729407 0.032982 0.388102
v 0.759424 0.032982 0.618066
v 0.759424 0.032982 0.419220
vn -0.0000 1.0000 -0.0000
vt 0.670000 0.835000
vt 0.665000 0.835000
vt 0.665000 0.830000
vt 0.830000 0.665000
vt 0.835000 0.665000
vt 0.835000 0.670000
vt 0.170000 0.835000
vt 0.165000 0.835000
vt 0.165000 0.830000
vt 0.330000 0.665000
vt 0.335000 0.665000
vt 0.335000 0.670000
vt 0.170000 0.335000
vt 0.165000 0.335000
vt 0.165000 0.330000
vt 0.330000 0.165000
vt 0.335000 0.165000
vt 0.335000 0.170000
vt 0.670000 0.335000
vt 0.665000 0.335000
vt 0.665000 0.330000
vt 0.830000 0.165000
vt 0.835000 0.165000
vt 0.835000 0.170000
s 1
usemtl cgMulliganStew
f 3/1/1 2/2/1 1/3/1
f 2/4/1 4/5/1 1/6/1
f 2/1/1 5/2/1 4/3/1
f 5/4/1 6/5/1 4/6/1
f 5/1/1 7/2/1 6/3/1
f 7/4/1 8/5/1 6/6/1
f 7/1/1 9/2/1 8/3/1
f 9/4/1 10/5/1 8/6/1
f 9/1/1 11/2/1 10/3/1
f 11/4/1 12/5/1 10/6/1
f 15/7/1 14/8/1 13/9/1
f 13/10/1 14/11/1 16/12/1
f 17/7/1 15/8/1 13/9/1
f 18/10/1 13/11/1 16/12/1
f 18/7/1 16/8/1 19/9/1
f 16/10/1 20/11/1 19/12/1
f 21/7/1 15/8/1 17/9/1
f 22/10/1 21/11/1 17/12/1
f 19/7/1 20/8/1 23/9/1
f 20/10/1 24/11/1 23/12/1
f 22/7/1 25/8/1 21/9/1
f 25/10/1 26/11/1 21/12/1
f 27/7/1 26/8/1 25/9/1
f 28/10/1 27/11/1 25/12/1
f 23/7/1 24/8/1 29/9/1
f 30/10/1 23/11/1 29/12/1
f 30/7/1 29/8/1 31/9/1
f 29/10/1 32/11/1 31/12/1
f 33/7/1 27/8/1 28/9/1
f 34/10/1 33/11/1 28/12/1
f 31/7/1 32/8/1 35/9/1
f 34/10/1 35/11/1 33/12/1
f 32/7/1 36/8/1 35/9/1
f 35/10/1 36/11/1 33/12/1
f 39/13/1 38/14/1 37/15/1
f 40/16/1 39/17/1 37/18/1
f 40/13/1 41/14/1 39/15/1
f 41/16/1 42/17/1 39/18/1
f 41/13/1 43/14/1 42/15/1
f 43/16/1 44/17/1 42/18/1
f 47/13/1 46/14/1 45/15/1
f 48/16/1 47/17/1 45/18/1
f 48/13/1 49/14/1 47/15/1
f 49/16/1 50/17/1 47/18/1
f 49/13/1 51/14/1 50/15/1
f 51/16/1 52/17/1 50/18/1
f 55/13/1 54/14/1 53/15/1
f 56/16/1 55/17/1 53/18/1
f 56/13/1 57/14/1 55/15/1
f 57/16/1 58/17/1 55/18/1
f 57/13/1 59/14/1 58/15/1
f 59/16/1 60/17/1 58/18/1
f 63/19/1 62/20/1 61/21/1
f 64/22/1 63/23/1 61/24/1
f 64/19/1 65/20/1 63/21/1
f 65/22/1 66/23/1 63/24/1
f 65/19/1 67/20/1 66/21/1
f 67/22/1 68/23/1 66/24/1
f 71/19/1 70/20/1 69/21/1
f 72/22/1 71/23/1 69/24/1
f 72/19/1 73/20/1 71/21/1
f 73/22/1 74/23/1 71/24/1
f 73/19/1 75/20/1 74/21/1
f 75/22/1 76/23/1 74/24/1
