# Blender 4.2.0
# www.blender.org
mtllib Stage Point Chamber Of Legends.mtl
o point_stage_chamberoflegends
v -79.027054 0.000000 131.238297
v -80.972946 0.000000 131.238297
v -80.372818 0.000000 130.497086
v -79.627182 0.000000 130.497086
v -79.539665 0.000000 130.459000
v -78.882095 0.000000 131.203888
v -78.796738 0.000000 131.112610
v -78.761711 0.000000 130.972946
v -79.502914 0.000000 130.372818
v -78.761711 0.000000 130.185638
v -79.502914 0.000000 130.185638
v -79.627182 0.000000 130.497086
v -80.372818 0.000000 130.497086
v -80.186409 0.000000 130.248535
v -79.813591 0.000000 130.248535
v -79.769829 0.000000 130.229507
v -79.539665 0.000000 130.459000
v -79.751457 0.000000 130.186401
v -79.502914 0.000000 130.372818
v -79.502914 0.000000 130.185638
v -79.751457 -0.000000 129.813599
v -79.502914 -0.000000 129.814362
v -78.761711 0.000000 130.185638
v -78.761711 -0.000000 129.814362
v -79.813591 0.000000 130.248535
v -80.186409 0.000000 130.248535
v -80.000000 0.000000 130.000000
v -79.769829 0.000000 130.229507
v -79.751457 0.000000 130.186401
v -79.751457 -0.000000 129.813599
v -80.248543 0.000000 130.186401
v -80.248543 -0.000000 129.813599
v -80.000000 0.000000 130.000000
v -80.230171 0.000000 130.229507
v -80.186409 0.000000 130.248535
v -80.372818 0.000000 130.497086
v -80.230171 0.000000 130.229507
v -80.186409 0.000000 130.248535
v -80.460335 0.000000 130.459000
v -80.248543 0.000000 130.186401
v -80.497086 0.000000 130.372818
v -80.497086 0.000000 130.185638
v -80.248543 -0.000000 129.813599
v -80.497086 -0.000000 129.814362
v -81.238289 0.000000 130.185638
v -81.238289 -0.000000 129.814362
v -81.238289 0.000000 130.185638
v -80.497086 0.000000 130.185638
v -80.497086 0.000000 130.372818
v -81.238289 0.000000 130.972946
v -80.460335 0.000000 130.459000
v -81.203262 0.000000 131.112610
v -81.117905 0.000000 131.203888
v -80.972946 0.000000 131.238297
v -80.372818 0.000000 130.497086
v -80.497086 -0.000000 129.814362
v -80.497086 -0.000000 129.627182
v -80.248543 -0.000000 129.813599
v -80.460335 -0.000000 129.541000
v -80.230171 -0.000000 129.770493
v -80.372818 -0.000000 129.502914
v -80.186409 -0.000000 129.751465
v -79.813591 -0.000000 129.751465
v -79.627182 -0.000000 129.502914
v -80.972946 -0.000000 128.761703
v -79.027054 -0.000000 128.761703
v -79.627182 -0.000000 129.502914
v -80.372818 -0.000000 129.502914
v -80.460335 -0.000000 129.541000
v -81.117905 -0.000000 128.796112
v -81.203262 -0.000000 128.887390
v -81.238289 -0.000000 129.027054
v -80.497086 -0.000000 129.627182
v -81.238289 -0.000000 129.814362
v -80.497086 -0.000000 129.814362
v -80.000000 0.000000 130.000000
v -80.248543 -0.000000 129.813599
v -80.230171 -0.000000 129.770493
v -80.186409 -0.000000 129.751465
v -79.813591 -0.000000 129.751465
v -79.627182 -0.000000 129.502914
v -79.769829 -0.000000 129.770493
v -79.813591 -0.000000 129.751465
v -79.539665 -0.000000 129.541000
v -79.751457 -0.000000 129.813599
v -79.502914 -0.000000 129.627182
v -79.502914 -0.000000 129.814362
v -78.761711 -0.000000 129.814362
v -79.502914 -0.000000 129.814362
v -79.502914 -0.000000 129.627182
v -78.761711 -0.000000 129.027054
v -79.539665 -0.000000 129.541000
v -78.796738 -0.000000 128.887390
v -78.882095 -0.000000 128.796112
v -79.027054 -0.000000 128.761703
v -79.627182 -0.000000 129.502914
v -80.000000 0.000000 130.000000
v -79.769829 -0.000000 129.770493
v -79.751457 -0.000000 129.813599
v -79.813591 -0.000000 129.751465
v -78.250000 0.000000 131.375000
v -78.299500 0.000000 131.572372
v -78.420135 0.000000 131.701385
v -78.625000 0.000000 131.750000
v -78.882095 0.000000 131.203888
v -79.027054 0.000000 131.238297
v -80.972946 0.000000 131.238297
v -78.796738 0.000000 131.112610
v -78.761711 0.000000 130.972946
v -78.761711 0.000000 130.185638
v -81.375000 0.000000 131.750000
v -78.250000 -0.000000 128.625000
v -81.117905 0.000000 131.203888
v -78.761711 -0.000000 129.814362
v -78.761711 -0.000000 129.027054
v -78.796738 -0.000000 128.887390
v -81.203262 0.000000 131.112610
v -78.625000 -0.000000 128.250000
v -78.299500 -0.000000 128.427628
v -78.420135 -0.000000 128.298615
v -78.882095 -0.000000 128.796112
v -79.027054 -0.000000 128.761703
v -80.972946 -0.000000 128.761703
v -81.375000 -0.000000 128.250000
v -81.117905 -0.000000 128.796112
v -81.750000 -0.000000 128.625000
v -81.579865 -0.000000 128.298615
v -81.700500 -0.000000 128.427628
v -81.203262 -0.000000 128.887390
v -81.238289 -0.000000 129.027054
v -81.238289 -0.000000 129.814362
v -81.750000 0.000000 131.375000
v -81.238289 0.000000 130.185638
v -81.238289 0.000000 130.972946
v -81.700500 0.000000 131.572372
v -81.579865 0.000000 131.701385
v -81.700500 0.000000 131.572372
v -82.009445 0.000000 131.247955
v -82.062386 0.000000 131.036850
v -81.750000 0.000000 131.375000
v -81.750000 -0.000000 128.625000
v -82.062386 -0.000000 128.332581
v -82.009445 -0.000000 128.121475
v -81.700500 -0.000000 128.427628
v -81.750000 0.000000 131.375000
v -82.062386 0.000000 131.036850
v -82.062386 -0.000000 128.332581
v -81.750000 -0.000000 128.625000
v -81.375000 -0.000000 128.250000
v -81.661324 -0.000000 127.931511
v -78.947891 -0.000000 127.931511
v -78.625000 -0.000000 128.250000
v -78.625000 -0.000000 128.250000
v -78.947891 -0.000000 127.931511
v -78.743675 -0.000000 127.983498
v -78.420135 -0.000000 128.298615
v -81.579865 -0.000000 128.298615
v -81.880424 -0.000000 127.983498
v -81.661324 -0.000000 127.931511
v -81.375000 -0.000000 128.250000
v -81.700500 -0.000000 128.427628
v -82.009445 -0.000000 128.121475
v -81.880424 -0.000000 127.983498
v -81.579865 -0.000000 128.298615
vn -0.0000 1.0000 -0.0000
vt 0.291750 0.708375
vt 0.291625 0.708375
vt 0.291625 0.708250
vt 0.333249 0.666625
vt 0.333374 0.666625
vt 0.333374 0.666750
vt 0.291750 0.520875
vt 0.291625 0.520875
vt 0.291625 0.520750
vt 0.333249 0.479125
vt 0.333374 0.479125
vt 0.333374 0.479250
vt 0.479250 0.520875
vt 0.479125 0.520875
vt 0.479125 0.520750
vt 0.520749 0.479125
vt 0.520874 0.479125
vt 0.520874 0.479250
vt 0.500062 0.500063
vt 0.499937 0.500063
vt 0.499937 0.499938
vt 0.500062 0.499938
vt 0.166750 0.833375
vt 0.166625 0.833375
vt 0.166625 0.833250
vt 0.208249 0.791625
vt 0.208374 0.791625
vt 0.208374 0.791750
vt 0.041750 0.958375
vt 0.041625 0.958375
vt 0.041625 0.958250
vt 0.083249 0.916625
vt 0.083374 0.916625
vt 0.083374 0.916750
s 1
usemtl point_stage_chamberoflegends
f 3/1/1 2/2/1 1/3/1
f 4/4/1 3/5/1 1/6/1
f 5/1/1 4/2/1 1/3/1
f 6/4/1 5/5/1 1/6/1
f 6/1/1 7/2/1 5/3/1
f 7/4/1 8/5/1 5/6/1
f 8/1/1 9/2/1 5/3/1
f 9/4/1 8/5/1 10/6/1
f 11/1/1 9/2/1 10/3/1
f 14/7/1 13/8/1 12/9/1
f 15/10/1 14/11/1 12/12/1
f 16/7/1 15/8/1 12/9/1
f 17/10/1 16/11/1 12/12/1
f 16/7/1 17/8/1 18/9/1
f 17/10/1 19/11/1 18/12/1
f 18/7/1 19/8/1 20/9/1
f 21/10/1 18/11/1 20/12/1
f 22/7/1 21/8/1 20/9/1
f 22/10/1 20/11/1 23/12/1
f 24/7/1 22/8/1 23/9/1
f 27/13/1 26/14/1 25/15/1
f 28/16/1 27/17/1 25/18/1
f 28/13/1 29/14/1 27/15/1
f 30/16/1 27/17/1 29/18/1
f 33/19/1 32/20/1 31/21/1
f 31/21/1 34/22/1 33/19/1
f 33/13/1 34/14/1 35/15/1
f 38/10/1 37/11/1 36/12/1
f 37/7/1 39/8/1 36/9/1
f 39/10/1 37/11/1 40/12/1
f 41/7/1 39/8/1 40/9/1
f 41/10/1 40/11/1 42/12/1
f 40/7/1 43/8/1 42/9/1
f 43/10/1 44/11/1 42/12/1
f 42/7/1 44/8/1 45/9/1
f 44/10/1 46/11/1 45/12/1
f 49/4/1 48/5/1 47/6/1
f 50/1/1 49/2/1 47/3/1
f 49/4/1 50/5/1 51/6/1
f 50/1/1 52/2/1 51/3/1
f 52/4/1 53/5/1 51/6/1
f 51/1/1 53/2/1 54/3/1
f 55/4/1 51/5/1 54/6/1
f 58/7/1 57/8/1 56/9/1
f 59/10/1 57/11/1 58/12/1
f 60/7/1 59/8/1 58/9/1
f 59/10/1 60/11/1 61/12/1
f 60/7/1 62/8/1 61/9/1
f 62/10/1 63/11/1 61/12/1
f 63/7/1 64/8/1 61/9/1
f 67/1/1 66/2/1 65/3/1
f 68/4/1 67/5/1 65/6/1
f 69/1/1 68/2/1 65/3/1
f 70/4/1 69/5/1 65/6/1
f 70/1/1 71/2/1 69/3/1
f 71/4/1 72/5/1 69/6/1
f 72/1/1 73/2/1 69/3/1
f 73/4/1 72/5/1 74/6/1
f 75/1/1 73/2/1 74/3/1
f 78/16/1 77/17/1 76/18/1
f 78/13/1 76/14/1 79/15/1
f 76/16/1 80/17/1 79/18/1
f 83/10/1 82/11/1 81/12/1
f 82/7/1 84/8/1 81/9/1
f 84/10/1 82/11/1 85/12/1
f 86/7/1 84/8/1 85/9/1
f 87/10/1 86/11/1 85/12/1
f 90/4/1 89/5/1 88/6/1
f 91/1/1 90/2/1 88/3/1
f 90/4/1 91/5/1 92/6/1
f 91/1/1 93/2/1 92/3/1
f 93/4/1 94/5/1 92/6/1
f 92/1/1 94/2/1 95/3/1
f 96/4/1 92/5/1 95/6/1
f 99/13/1 98/14/1 97/15/1
f 97/16/1 98/17/1 100/18/1
f 103/23/1 102/24/1 101/25/1
f 104/26/1 103/27/1 101/28/1
f 105/23/1 104/24/1 101/25/1
f 105/26/1 106/27/1 104/28/1
f 106/23/1 107/24/1 104/25/1
f 108/26/1 105/27/1 101/28/1
f 109/23/1 108/24/1 101/25/1
f 110/26/1 109/27/1 101/28/1
f 107/23/1 111/24/1 104/25/1
f 110/26/1 101/27/1 112/28/1
f 107/23/1 113/24/1 111/25/1
f 114/26/1 110/27/1 112/28/1
f 115/23/1 114/24/1 112/25/1
f 116/26/1 115/27/1 112/28/1
f 113/23/1 117/24/1 111/25/1
f 116/26/1 112/27/1 118/28/1
f 112/23/1 119/24/1 118/25/1
f 119/26/1 120/27/1 118/28/1
f 121/23/1 116/24/1 118/25/1
f 122/26/1 121/27/1 118/28/1
f 123/23/1 122/24/1 118/25/1
f 124/26/1 123/27/1 118/28/1
f 125/23/1 123/24/1 124/25/1
f 125/26/1 124/27/1 126/28/1
f 124/23/1 127/24/1 126/25/1
f 127/26/1 128/27/1 126/28/1
f 129/23/1 125/24/1 126/25/1
f 130/26/1 129/27/1 126/28/1
f 131/23/1 130/24/1 126/25/1
f 131/26/1 126/27/1 132/28/1
f 133/23/1 131/24/1 132/25/1
f 134/26/1 133/27/1 132/28/1
f 117/23/1 134/24/1 132/25/1
f 117/26/1 132/27/1 111/28/1
f 132/23/1 135/24/1 111/25/1
f 135/26/1 136/27/1 111/28/1
f 139/29/1 138/30/1 137/31/1
f 140/32/1 139/33/1 137/34/1
f 143/29/1 142/30/1 141/31/1
f 144/32/1 143/33/1 141/34/1
f 147/29/1 146/30/1 145/31/1
f 148/32/1 147/33/1 145/34/1
f 151/29/1 150/30/1 149/31/1
f 152/32/1 151/33/1 149/34/1
f 155/29/1 154/30/1 153/31/1
f 156/32/1 155/33/1 153/34/1
f 159/29/1 158/30/1 157/31/1
f 160/32/1 159/33/1 157/34/1
f 163/29/1 162/30/1 161/31/1
f 164/32/1 163/33/1 161/34/1
